<svg xmlns="http://www.w3.org/2000/svg" viewBox="0 0 380 320"><title>Asset 3</title><path fill="none" d="M0 0h380v320H0z"/><circle cx="177.3" cy="72.1" r="3.4" fill="#f4606c"/><path d="M278.7 265.2a2.7 2.7 0 0 1-2.5 2.8 72.1 72.1 0 0 1-7.6.3c-4.2-.1-7.6-1.1-11.8-.5s-7.8-.1-11.6.3-8.9-.1-13.4.2-6.5-.3-10.6-.6a35.5 35.5 0 0 0-6 .1 58.5 58.5 0 0 1-7.5.2 53.3 53.3 0 0 0-9.7 0 69.3 69.3 0 0 1-7.1.3 3.2 3.2 0 0 1-3.3-3.1c0-.7.1-6.1.2-7.8.2-3.7-.4-5.5-.2-10.4s1.4-7 5.4-7 18.2.6 23.4.3c1.7-.1 10.5.1 13.1-.1 8.5-.6 16 .2 24.4 0 4.7-.1 10.1-.5 15-.2 2.5.1 7.3-.4 9.1 2s1.2 10.4 1.2 12.9-.5 9.1-.5 10.3z" fill="#f4606c"/><path d="M289.1 244.2a2.7 2.7 0 0 1-2.8 3 56 56 0 0 0-7.3-.1c-3.8.6-7.5-.3-11.3.3-6.6.9-11.9.2-19.4.4-3.2.1-6.3 1-9.4.5s-4.4.2-6.5-.2a49.2 49.2 0 0 0-4.9-.3c-2.9-.3-5.2.5-8.3.4s-7.5.6-11.2.5c-6.8-.3-10.7-1.1-17.9-.6a59.1 59.1 0 0 1-8.3-.1 3.3 3.3 0 0 1-3-3.3c0-2.2-.1-4.8-.1-6.6a88.7 88.7 0 0 0-.2-10.4c-.1-1.4-.3-2.4-.3-3.9s.7-4.1.5-6 .6-6.4.5-9.6a95.5 95.5 0 0 0-.5-11.3c-.5-3.6-.8-5.6 0-9.2s.7-7.4.9-11c.5-6.9.1-14 .3-20.9.1-4.6.1-9.4 2.4-13.5s5.7-6.5 9.4-9.1c6.8-4.7 14.8-5.7 22.8-5.5 3.4.1 6.6-.7 9.8-.7 1.7 0 8.9 1.1 10.8 1.1s6.7-.5 10 .1 6.8-.7 10.8-.8c8.4-.1 19.3 1.2 24.7 8.6 2.2 3 3.5 6.4 5.3 9.7s2 8 2.4 12.2c.7 8.4.5 15.7.6 23.2.1 3.7-.1 18.5-.5 22.8-.2 1.9.4 3.5.3 5.3s.8 12.2.5 15.2-.4 17.2-.1 19.8z" fill="#2e71f2"/><path d="M260.5 205.1l-12.1-.2a52 52 0 0 0-6 .1c-2.3.2-10.1 0-12-.1a58.4 58.4 0 0 0-6 .4c-4.3.2-10.4-.2-14.7-.3s-11.8.8-14.4-2.3-3-8-2.7-13.5c.1-1.7.3-8.7.4-11 .2-4.4-.9-8.6-.6-13.2s.1-8.7.8-12.1a11.7 11.7 0 0 1 2.7-6c3.9-4.4 10.5-4 12.6-4.2a34.8 34.8 0 0 1 6-.1c4.4.5 8.5-.5 12.8-.1 8 .7 16.1-.7 24.1-.3s20.6-.6 22.1 11.2c.3 2.3.3 5.1.5 7.5s-.3 4.6-.2 7 .6 9.9.5 13.1-.3 9.9-.5 14.4c-.1 8-5.8 10.1-13.3 9.7z" fill="#fff"/><path fill="none" stroke="#fff" stroke-linecap="round" stroke-miterlimit="10" stroke-width="5.669" d="M242.5 226.5h28.8"/><circle cx="200.6" cy="226.5" r="5.2" fill="none" stroke="#fff" stroke-linecap="round" stroke-miterlimit="10" stroke-width="5.669"/><path fill="none" stroke="#3d3d3d" stroke-linecap="round" stroke-linejoin="round" stroke-width="4" d="M217.7 158.9v7.8m31.3-7.8v7.8m-13.1-7.8v20.6h-6.3m16.6 8.1a17.8 17.8 0 0 1-25.1 0"/><path d="M177.9 6H25A17.2 17.2 0 0 0 7.9 23.1v56.5A17.2 17.2 0 0 0 25 96.7h122.7l27.8 21.3V96.7h2.5a17.2 17.2 0 0 0 17.2-17.2V23.1A17.2 17.2 0 0 0 177.9 6z" fill="#fff"/><path fill="none" stroke="#2e71f2" stroke-linecap="round" stroke-linejoin="round" stroke-width="2" stroke-dasharray="0,4.249911785125732" d="M175.5 113.7V98.8"/><path d="M179.5 96.6a17.2 17.2 0 0 0 15.6-17.1V23.1A17.2 17.2 0 0 0 177.9 6H25A17.2 17.2 0 0 0 7.9 23.1v56.5A17.2 17.2 0 0 0 25 96.7h122.7l26.1 20" fill="none" stroke="#2e71f2" stroke-linecap="round" stroke-linejoin="round" stroke-width="2" stroke-dasharray="0,4.0119428634643555"/><path d="M153.4 139.2c.4-3.6 2.9-9.8 0-10.3s-3.2 3.3-3.4 5.6a27.6 27.6 0 0 0 .4-5.3c-.2-2.6-2.8-3.3-4.1-1.4s-.9 4.7-1.2 6.2c.2-1.7.1-5.2-1.4-5.5s-3 4.4-3.3 6.3c-1 6.2-1 14.5.9 20.5 2.7 8.3 3.3 13.1 8.7 20.6s21.6 18.9 31.9 18.9" fill="none" stroke="#3d3d3d" stroke-linecap="round" stroke-linejoin="round" stroke-width="2"/><path d="M183.2 182.4c-8.1-2.1-19.9-8.7-24.5-18.6-2.9-6-5.6-11.8-6-18.1m-1.5-5c1.9-1.2 5.7-3.5 7-2.6s.7 2.7-.8 3.9l-6.5 5.1m46.9 123.4c-.6 14.1-.4 22.2-.6 32.8 0 1.7-.7 2.3-2.6 2.5-4.2.4-5.4.4-9.3.7a6.6 6.6 0 0 0-4.2 1.9 4.1 4.1 0 0 0-.6 3.7c.7 1.8 3.1 2 4.3 1.9l22.5-.6a4.9 4.9 0 0 0 5-5c.2-8.8.2-13.9 0-20.9-.1-5.2.1-8.4.5-14.8m45.6-.1c.4 10.8-.9 17.8.3 30.7.2 1.7-1.2 2.8-3.1 3-4.2.4-4.8.4-8.8.7-1.5.1-4 .8-4.9 2.2a4.8 4.8 0 0 0-.6 3.3c.3 1.9 2 2.5 4.6 2.5 8.8 0 14.2-.3 22.5-.6 2.5-.1 4.4-1.6 4.5-5 .2-8.8-.5-15.5-.6-22.5a142.8 142.8 0 0 1 .6-15.5" fill="none" stroke="#3d3d3d" stroke-linecap="round" stroke-linejoin="round" stroke-width="2"/><path d="M270.3 243.6c-.9-2.9 0-5.7 3.5-6.8l8.8-2.7 10.3-3c4.4-1.3 3-.5 7.4-1.8s3.6-1.5 8-2.8 5.1-1.9 9.5-3.2l8.6-2.7 11.1-3.3 15.2-4.8c2.9-.9 6.3 1.4 7.2 4.3s1.2 4.8 2.5 9.1 1.4 3.9 2.7 8.2 1.2 3.6 2.5 7.9l2.9 9.9c1.1 3.7-1.6 6.9-5.3 8l-9.3 2.8c-4.2 1.3-11 3.7-15.2 4.9s-5.7 2-9.9 3.2-12 3.1-16.2 4.4-10.7 3.8-15 5l-10.2 3.2c-3.7 1.1-7.8-1.6-8.9-5.3s-1.2-4.7-2.5-9.1-1-4.1-2.3-8.4-1.6-4.3-2.8-8.6-1.4-4.1-2.6-8.4z" fill="#c3c6c8"/><path d="M285.1 270.7a1 1 0 0 1 .6-1.3l6.7-1.9a1 1 0 0 1 1.3.6c.7 2.3.6 2.3 1.2 4.5a1 1 0 0 1-.6 1.3l-6.7 2a1 1 0 0 1-1.3-.7c-.5-2.3-.5-2.3-1.2-4.5zm10.9-3.3a.9.9 0 0 1 .7-1.1l9.4-3 9.5-2.8c4.7-1.4 4.7-1.6 9.4-3.1.5-.2 1 .4 1.2.9.7 2.3 1.1 2.1 1.8 4.4.2.5-.5 1.1-1 1.2l-9.5 2.9c-4.7 1.4-4.8 1.2-9.5 2.6s-4.7 1.6-9.4 3a.9.9 0 0 1-1.1-.6c-.7-2.2-.8-2.1-1.5-4.4zm32.7-9.8a1 1 0 0 1 .6-1.2l6.7-1.9a1 1 0 0 1 1.3.6c.7 2.3.6 2.3 1.2 4.5a1 1 0 0 1-.6 1.3l-6.7 1.8a.9.9 0 0 1-1.2-.6zm10.8-3.2a1 1 0 0 1 .7-1.3l6.7-2a1 1 0 0 1 1.2.7l1.3 4.5a.9.9 0 0 1-.6 1.2l-6.6 2.1a1.1 1.1 0 0 1-1.3-.7c-.8-2.2-.7-2.2-1.4-4.5zm-57.4 6.4a1 1 0 0 1 .7-1.2l6.6-2.1a1.1 1.1 0 0 1 1.3.7c.7 2.3.6 2.3 1.3 4.5a1 1 0 0 1-.6 1.2l-6.7 2a1 1 0 0 1-1.3-.6c-.7-2.3-.6-2.3-1.3-4.5zm10.8-3.3a1.1 1.1 0 0 1 .7-1.3l6.7-2a1 1 0 0 1 1.2.7c.7 2.3.8 2.2 1.5 4.5a1.1 1.1 0 0 1-.7 1.3l-6.7 1.9a1 1 0 0 1-1.2-.6c-.7-2.2-.8-2.2-1.5-4.5zm11-3.2a1.1 1.1 0 0 1 .7-1.3l6.7-2a1 1 0 0 1 1.2.7l1.3 4.5a.9.9 0 0 1-.6 1.2l-6.6 2a1.1 1.1 0 0 1-1.3-.6c-.8-2.3-.7-2.3-1.4-4.5zm10.9-3.3a1 1 0 0 1 .6-1.3l6.7-1.9a1 1 0 0 1 1.2.6c.7 2.3.6 2.3 1.3 4.5a1 1 0 0 1-.6 1.3l-6.7 2a1.1 1.1 0 0 1-1.3-.7c-.5-2.2-.5-2.3-1.2-4.5zm10.8-3.2a1 1 0 0 1 .7-1.2l6.7-2a1 1 0 0 1 1.3.6c.7 2.3.6 2.3 1.2 4.5a.9.9 0 0 1-.6 1.2l-6.6 2a1 1 0 0 1-1.2-.7c-.7-2.2-.8-2.2-1.5-4.4zm10.9-3.3a1 1 0 0 1 .7-1.2l6.7-2a1 1 0 0 1 1.3.6c.7 2.3.6 2.3 1.2 4.5a.9.9 0 0 1-.6 1.2l-6.6 2.1a1.1 1.1 0 0 1-1.3-.7zm-57.4 6.4a1 1 0 0 1 .7-1.3l6.7-1.9a.9.9 0 0 1 1.1.6c.7 2.3.8 2.2 1.4 4.5a1.1 1.1 0 0 1-.7 1.3l-6.7 2a1 1 0 0 1-1.2-.8c-.6-2.2-.6-2.2-1.3-4.4zm11-3.3a.9.9 0 0 1 .6-1.2l6.6-2a1 1 0 0 1 1.2.7c.7 2.3.7 2.2 1.4 4.5a1 1 0 0 1-.8 1.2l-6.6 2a.9.9 0 0 1-1.2-.7c-.4-2.3-.5-2.3-1.2-4.5zm10.8-3.2a1 1 0 0 1 .7-1.2l6.6-2a1 1 0 0 1 1.2.6l1.4 4.5a1 1 0 0 1-.7 1.2l-6.6 2.1a1.1 1.1 0 0 1-1.3-.7c-.7-2.3-.6-2.3-1.3-4.5zm11-3.3a1 1 0 0 1 .6-1.2l6.6-2a1.1 1.1 0 0 1 1.3.7c.7 2.3.6 2.3 1.2 4.5a1 1 0 0 1-.6 1.3l-6.7 1.9a1 1 0 0 1-1.3-.6c-.5-2.4-.4-2.4-1.1-4.6zm10.8-3.3a1.1 1.1 0 0 1 .7-1.4c4.4-1.3 4.5-1.1 8.8-2.4s4.3-1.6 8.7-2.9c.5-.2 1.1.3 1.2.9.7 2.3.8 2.2 1.5 4.5.2.5-.3 1-.8 1.1-4.4 1.3-4.3 1.6-8.7 2.9s-4.5 1.1-8.8 2.4a1 1 0 0 1-1.3-.5c-.7-2.3-.6-2.3-1.3-4.6zm30.7 12.4a1 1 0 0 1 .6-1.2l6.7-1.9a.9.9 0 0 1 1.2.6c.7 2.3.7 2.2 1.4 4.5a1 1 0 0 1-.7 1.3l-6.6 2.1a1.1 1.1 0 0 1-1.3-.7c-.7-2.4-.6-2.4-1.3-4.7zm-3.1-9.8a1.1 1.1 0 0 1 .7-1.3l6.7-2a1 1 0 0 1 1.2.7l1.4 4.5a1.1 1.1 0 0 1-.7 1.3l-6.7 2a1 1 0 0 1-1.2-.7c-.6-2.3-.7-2.3-1.4-4.5zm-2.8-10a.9.9 0 0 1 .6-1.2l6.6-2.1a1.1 1.1 0 0 1 1.3.7c.7 2.3.5 2.3 1.2 4.6a.9.9 0 0 1-.6 1.2l-6.6 2.1a1.1 1.1 0 0 1-1.3-.7c-.6-2.3-.5-2.3-1.2-4.6zm-70.7 12.4a1 1 0 0 1 .7-1.3l6.7-2a1 1 0 0 1 1.3.7l.7 2.1a1.1 1.1 0 0 1-.7 1.3l-6.7 2a1.1 1.1 0 0 1-1.3-.7c-.5-1-.4-1-.7-2.1zm10.9-3.3a.9.9 0 0 1 .6-1.2l6.6-2a1 1 0 0 1 1.3.6l.6 2.1a1.1 1.1 0 0 1-.7 1.3l-6.6 2a1 1 0 0 1-1.3-.7zm10.9-3.2a.9.9 0 0 1 .6-1.2l6.6-2a1 1 0 0 1 1.2.7c.3 1.1.4 1 .7 2.1a1 1 0 0 1-.8 1.2l-6.6 2.1a1 1 0 0 1-1.2-.8c-.1-1.1-.2-1.1-.5-2.1zm10.8-3.2a1 1 0 0 1 .8-1.2l6.6-2a1 1 0 0 1 1.3.6l.7 2.1a1.1 1.1 0 0 1-.7 1.2l-6.6 2.1a1.1 1.1 0 0 1-1.3-.7c-.5-1.1-.5-1.1-.8-2.1zm11-3.3a1 1 0 0 1 .6-1.3l6.6-2a1.1 1.1 0 0 1 1.3.7c.3 1.1.2 1.1.5 2.1a.9.9 0 0 1-.7 1.2l-6.6 2a1 1 0 0 1-1.2-.6zm10.9-3.3a1 1 0 0 1 .6-1.3l6.6-2a1.1 1.1 0 0 1 1.2.8c.3 1.1.3 1.1.6 2.1a1 1 0 0 1-.6 1.2l-6.6 2a1.1 1.1 0 0 1-1.3-.7z" fill="#3b3d40"/><path d="M189 77.9c2.5-4.3 10-2 14.3 0s11 7.5 8.5 10.8-5-3.2-11.1-5.5-12.6-3.7-11.7-5.3z" fill="#2e71f2"/><path d="M120.7 241.4c-2.1-7.2 3-7 8-10.5s8.8-7.2 10-3.5-6 9-4.2 14 4.5 8-.5 8-11.3-1-13.3-8zM294.2 91c-3.8 4.1-1.8 8 7.5 8.5s17 2.5 20.3 7.2 10.5 10 13 15 7.3 4.8 9.8.8.5-7.2-4.7-11.2-16.5-10.2-18-13.5-9.2-4-16-4.5S296 89 294.2 91z" fill="#f4606c"/><path d="M292.4 68c.9 4.8.5 10.3 3.8 9.8s3.5-3.2 1.3-7-1.2-8.2-4-7.9-1.4 3.5-1.1 5.1z" fill="#2e71f2"/><path d="M272.9 82.8c1.4-3.3 7.6-4.5 10.5-2.7s2.7 5.2-1.2 5.6-5.2 2.3-6 4.2-6.7 1-3.3-7.1z" fill="#f4606c"/><path d="M299.6 87.2c-2 .7-3.5 9.4-5.7 12s-1 3.8 1.5 2.9 6.8-7.7 6.3-11.7-.3-3.8-2.1-3.2z" fill="#2e71f2"/><path d="M92.3 87.2c-.9 2 2.1 5 8.9 5.9s21.8 6.4 26.8 8.6 11.5-.3 8.8-2.2-13.1-2.1-16.9-4.3-18.4-7.1-21.9-8.4-4.9-1.4-5.7.4zM196 100.8c-1.6 2-3.2 4.5-5.3 7.4s-.9 6.5 1.8 5.5 1.6-3.2 4.3-4.2 4.4-4.7 3.2-6.8-2.5-3.8-4-1.9z" fill="#f4606c"/><path d="M31.9 129.9c-2.8 2.3-1.1 5.5 5.7 4.5s20.1-8 25.8-9 7.4-6.8 2.4-6.2-13.2 5.4-18.1 7.1-13.8 1.9-15.8 3.6zM83 209.3c2.4-3.4 9.8-7.3 8-9.7s-8.5-6-3.7-9.3 13.2-6.2 10.3-9.3-6.5-7-.8-10.2 13.3-4.8 12.2-2.2-7.5 3-8.8 5.5 4.2 9 2.5 11.5-11.7 6-9.3 9.2 5.9 5.5 2.1 9.5-4.6 5.8-9.2 7.8-5.8.7-3.3-2.8zm210.1-87.7c1-3.3 3.9-8.6 9.2-6.5s7.7 2.5 9.8-1.3 1.4-7.2 7.5-5.4c4.5 1.4 5.6-2.9 7.2-5.3s4.2 1.2.9 6.3-6.7 2.3-8.9 2.4-2.1 3-3.6 5.8-6.9 4.7-11.6 2.2c-3.1-1.6-6-.7-7.1 3.8-.8 2.6-4.8 2.8-3.4-2z" fill="#2e71f2"/><path d="M289.3 195c6.6 2.5 16.2 7.6 20.9 17.5 3 6.3 5.5 12 5.6 18.4l-4.3 3.4c-1.5 1.2-2.2 3-.8 3.9s2.8.2 4.6-1c-.9 4.1-2.1 9.8.2 10.2s3.2-3.3 3.4-5.6a27.6 27.6 0 0 0-.4 5.3c.3 2.6 2.8 3.3 4.1 1.4s.9-4.7 1.2-6.2c-.2 1.7-.1 5.2 1.4 5.5s3-4.4 3.3-6.3c1-6.2 1-14.5-.9-20.5-2.7-8.3-3.2-13.1-8.7-20.6s-21.3-17.8-29.9-19.3" fill="#fff"/><path d="M285.7 193.9c8.1 2.1 19.9 8.7 24.5 18.6 3 6.3 5.5 12 5.6 18.4l-4.3 3.4c-1.5 1.2-2.2 3-.8 3.9s2.8.2 4.6-1c-.9 4.1-2.1 9.8.2 10.2s3.2-3.3 3.4-5.6a27.6 27.6 0 0 0-.4 5.3c.3 2.6 2.8 3.3 4.1 1.4s.9-4.7 1.2-6.2c-.2 1.7-.1 5.2 1.4 5.5s3-4.4 3.3-6.3c1-6.2 1-14.5-.9-20.5-2.7-8.3-3.2-13.1-8.7-20.6s-23.6-19.8-33.9-19.8" fill="none" stroke="#3d3d3d" stroke-linecap="round" stroke-linejoin="round" stroke-width="2"/><path d="M316.2 207.5c1.8-6 13.3-11.2 15.5-14s3 2.3 0 5-5.5 5.5-6.7 10.5-11.3 6.8-8.8-1.5z" fill="#2e71f2"/><path d="M20.6 63.8c10.7-5.9 25.6-14 32.6-23.6s6.6-16.2 3.1-17.4-7.9 4.2-9.6 12.9-6.9 36.9-6.9 36.9" fill="none" stroke="#f4606c" stroke-linecap="round" stroke-miterlimit="10" stroke-width="5"/><path d="M42.6 57.9c3.1-5.9 9-9.1 13.3-8.7s6.6 2.5 5.9 8.4-3.7 10.9.1 14 13.6 1.7 20.7-6.7 4.8-13.9 1.6-15.1-10 1.3-10 10.5S82.7 72 86.5 72.2s16.4-1 23.6-18.7 5.9-30.1.2-30.7-10.7 7.9-11.5 21.9 2.3 23.3 10.1 26.4 18.9-3.8 24.1-14.6 10.7-31.6 2.8-33.3-11 10.3-11.9 20.2-.9 21.7 8.4 26.7 16-6.1 16-6.1m8.8-14.1c-4.4 1.4-7.9 4.9-8.6 11.3s2.8 11.2 8.5 11.2 12.5-6.8 10.8-14.9-7-8.8-10.7-7.6zm7.7 1.8c6 3.1 11.8 1.2 15.6-1.5" fill="none" stroke="#f4606c" stroke-linecap="round" stroke-miterlimit="10" stroke-width="5"/></svg>