<svg xmlns="http://www.w3.org/2000/svg" viewBox="0 0 360.3 356.4"><title>Asset 5</title><path d="M141.1 197.8q.1 3.8.1 6.8a2 2 0 0 1-2.4 2.5h-9.9a3.1 3.1 0 0 0-1.8.3 2.9 2.9 0 0 0-.4 1.7l-.4 11.4v6.8a2.6 2.6 0 0 0 .3 1.6 2.5 2.5 0 0 0 1.5.4l4.4.3 4.4.3h1.4v1.2l.3 5.5q0 1-1.1 1h-10.7a1.6 1.6 0 0 0-1.1.5 1.9 1.9 0 0 0-.3 1.2v21.1h-9.3v-4.5l-.2-24.8-.3-33v-1a.9.9 0 0 1 .9-.9h3.1l10.3-.4 5.2-.2 5.2-.2v2.7zm36.9 62.5h-2.6l-3.4-.2h-26.3l.8-3.9.4-1.9.4-1.9h1.9l3.2.3 3.2.2a3.2 3.2 0 0 0 1.8-.2 3 3 0 0 0 .5-1.8q.5-5.8.7-9.7l.5-9.6q.3-6 .5-9.6t.6-7.2l.7-7.2a3.6 3.6 0 0 0-.2-1.9 2.9 2.9 0 0 0-1.8-.9l-.9-.2-6.5-.8-.2-1.4a3.2 3.2 0 0 1-.1-.9v-.9l.4-2.4.2-1.3.2-1.3h29.9v1.7q.1.7.1.9v2.5q-.1 1.6-.2 2.8a4.9 4.9 0 0 1-.3 1.3l-.3.7-.3.6a1.7 1.7 0 0 1-1.7.9h-7.7a2.3 2.3 0 0 0-1.6.5 2.5 2.5 0 0 0-.5 1.6v4.9q-.1 3-.2 4.9l-.5 8.1-.5 8-.5 8.1-.3 8.1q-.1 1.2.2 1.5t1.5.4l4.6.2h6.2q-.1 1.4-.2 2.1l-.3 4q0 .9-.3 1.2l-.3.2zm44.4-64.9l-2.5 10.3-4.9 24.4-1.4 7.2q-.9 4.1-1.6 7.1t-1.6 6.1l-1.9 6.1a8.2 8.2 0 0 1-1.4 2.8q-1.4 1.8-2.5-.3l-.6-1.2-.6-1.3a20.5 20.5 0 0 1-1-2.6l-1.9-6.1-2-6.1q-2.2-7-3.7-12.2t-2.7-10.4l-1.2-5.2-1.2-5.3-1.3-5.7-1.2-5.7-.2-.9v-1h3.8a6.2 6.2 0 0 1 2.5.4 12 12 0 0 1 .6 2.3q4 17.9 6.6 29.5.4 1.8 1.1 4.3l.6 2.2.6 2.2.2.6.2.4v.4a4.6 4.6 0 0 0 .9-1.8l.2-.9.2-.9.5-1.9.5-1.9 1-3.8.5-1.9.5-1.9.9-3.8.9-3.6.8-3.8.4-1.9.4-1.9.4-1.9.3-1.9.6-3.8.5-3.4v-.4l.2-1.1zm30.8 8.1a2.2 2.2 0 0 1-.2 1.3 1.9 1.9 0 0 1-1.3.3h-12.8a2.1 2.1 0 0 0-1.2.4 2.5 2.5 0 0 0-.2 1.3q.1 4.7.2 7.5t.3 6.7v1.7a2.7 2.7 0 0 0 .1.8v1.8h9.5v6.8a3.5 3.5 0 0 1-.2 1.3l-11.1-.4-.2.5v.8a4.9 4.9 0 0 0 0 .6v12.7a4.1 4.1 0 0 0 .4 2.4 4 4 0 0 0 2.3.4l2.3-.2a22.4 22.4 0 0 1 3.9-.1h3.9q1.1 0 1.2 1.3l.2 3.8.3 3.8v.6l-23.9.2a3.8 3.8 0 0 1-.1-1l.2-4.3.3-4.3q.5-8.1.5-18.7 0-3.9-.2-9.3l-.2-9.3-.2-8-.3-8v-1.7q4.5-.3 12.8-.2h6.4l6.4-.2v1.9l.2 3zm-96.9-32.3c0 1.8-.2 2.9-2 2.9h-7.5c-1.3 0-1.9-1.3-1.9-2.7 0-5.3.1-12.3.2-18.6H136c0 10 .1 17.8.1 18.5s-.2 2.9-1.9 2.9h-7.6c-1.3 0-1.9-1.3-1.9-2.7V104a1.4 1.4 0 0 1 .9-1.3h8.9c.7 0 1.1.2 1.1 1.2 0 3 .1 21 .3 37.7l9.2.2c.1-11.4.2-34.2.2-37.7 0-.8.5-1.3.9-1.3h8.5c.7 0 1.2.2 1.2 1.2-.1 5.6.4 65.1.4 67.2zm7.1 1.2c0-4.5.3-13.1.2-17.5l.2-51.2a1 1 0 0 1 .9-.9h8.3c.7 0 1.2.1 1.2.7l.4 68.7c0 1.1-.2 1.8-2 1.8h-7.4a1.7 1.7 0 0 1-1.8-1.6zm44.3-51.6v6.7a1.7 1.7 0 0 1-1.8 1.9h-7.2c-1.1 0-1.6-.7-1.6-1.9v-8.1a2.9 2.9 0 0 0-3-2.9c-2 0-3.1.6-3.1 2.9l.4 39.6a2.9 2.9 0 0 0 2.9 3c2 0 2.9-1.1 2.9-3v-7.8c0-.4-.3-.5-.7-.5h-2c-.8 0-1-.4-1-1s.1-7.4 0-8.4.5-1 1.2-1h12c.8 0 1.1.8 1.1 1.7v17.5c0 5.9-2.9 14.8-13.6 14.8s-14.2-7.4-14.2-14.8l.2-43.3c0-8.2 3.1-13.1 13.9-13.1s13.6 4.7 13.6 11.4zm36.8 50.4c0 1.8-.2 2.9-2 2.9H235c-1.3 0-1.9-1.3-1.9-2.7 0-5.3.1-12.3.2-18.6h-9.1c0 10 .1 17.8.1 18.5s-.2 2.9-1.9 2.9h-7.6c-1.3 0-1.9-1.3-1.9-2.7V104a1.4 1.4 0 0 1 .9-1.3h8.9c.7 0 1.1.2 1.1 1.2 0 3 .1 21 .3 37.7l9.2.2c.1-11.4.2-34.2.2-37.7 0-.8.5-1.3.9-1.3h8.5c.7 0 1.2.2 1.2 1.2 0 5.6.4 65.1.4 67.2z" fill="#fff"/><path d="M40.8 135.1c1.1 5.3 1.3 9-2.4 14.4s-4 18 1.5 18.1c8.1.1 10.8-9 10.3-16s3.2-8.1 1.3-13.5c-2.4-7.2 1.8-12.7 6.3-16.4s6.5-8.2 6.8-14.3 10.7-5.3 10.7-14 3.1-9.9 5.1-10.8-2.7-1.8-5.6 1.7-.9 6.8-4.1 10.3-13.2 4.2-15.3 12.2-5 9.7-10.2 13.4-5.4 9.7-4.4 14.9z" fill="#f4606c"/><path d="M37.8 102.5c-.2 5.4-6.2 8.8-10.5 7.3s-9-11.1-6.4-18.1 8.9-11.3 8.8-11.3-2.2-10.2 4.6-16.7a20.1 20.1 0 0 1 12.9-5.4s-1.5-7.5 7.2-11.1 17.3-1.7 18.4-5.7.1-10.9 7.7-14.1 10.9-1.1 10.9-1.1S98.9 11 110.8 8.5s10.3 1 15.7.4 9.4-9.7 18.1-8.6 16.9 6.1 22.8 6.3 9.4-5.4 18.8-2.7 32.1 14.5 36.5 19.8-3.3-.7-8-3-24.8-14-31.8-9.4-7.1 6.4-14.9 3.7-15.1-8.4-20.9-1.3-10.7 7.3-16.8 5.4-12.4-1.1-13.3 4-2.8 12-10 13.8c-4.2 1.1-10.6-1-11.2 4s-6.4 14.2-14 14.8-14.2-1-16.2 1.6 1.3 7.7-3.9 12.2-14.3 6.9-14.3 7 5.5 6.9.1 12.2-9.5 7.2-9.7 13.8z" fill="#f4606c"/><path d="M207.6 6.8c.3 6.1-20.2-4.6-20 5.3s15.7 21.4 35 19.8c-1.9 9.1 15.2 14.7 24.6 14.5-.3 4.6 8.7 6.5 18.8 5.7s7.1 15 14.5 20.2 22.4-3.5 26 3.1 5.6 23.4 14.2 23.1 5.6 11.4 8.4 16.1 7.6 2.2 8.5 11.1 7.6 3.4 7.8 10.6-.1 18 3.7 21.9-.6-1.6.9-11.6 1.6-17.3-2.5-21.2.6-11.7-3.6-16.9-.6-16.5-5.5-19.4-10.1-1.6-10.2-8.4-3.6-16.5-9.7-18.2-9 .2-13.3-5-12.6 1.5-14.5-6.2-.6-11.8-6.3-15.7a34.9 34.9 0 0 0-12.7-5s.7-4.8-4.5-9.7-22-4.4-27.4-8.3S221.4.1 215.5 0c-4.2-.1-8.2 2.2-7.9 6.8z" fill="#2e71f2"/><path d="M283.2 32.3c.3 3.6-3.8 5.3 3.5 6.4s12.2 6.3 14.7 10.4 6.3 2.8 4.2-3.1-5.7-12-10.9-14.3-11.7-1.6-11.5.6z" fill="#f4606c"/><path d="M160.2 34.3c-7.1 4.9-13.1 1.4-20.2 4.9s-7 12.4-15.7 12.6c-6.5.2-9.9 2.6-8.6-1.9s5.3-4.3 10.5-8.5 12.3-9.6 22.2-7.4c5.6 1.2 14.1-1.2 11.8.3zm60.7 301.6c2.2-1.3 4.3-6.2 12.1-5.7s13.5 4.3 12.1 8.5-9.2 2-9.4 4.4-.3 7-8 7.8-16.3-1.9-18.4 1c-3.5 4.8-12.1 5.7-18.2 3.2s-9.7-1.3-13.2.1-12.9 1.3-19.9-3.7-12.5-8.7-16.6-3.4c-2.4 3.1-8.5 2.9-12.8-4.6-2.9-5.1-9.6.7-13.3-5.1-1.6-2.6-9.5-1-13.4-3.7s-6.3-4.3-9.9-11.3-7.6-10.8-11-11.6-1.8-1.7 1.9-1.1 12.6 6 15.1 11.2 8.8 5.3 14.7 5.3 11.1 6 15.7 7.7c11.2 4.2 10.4-4 17.2-2.4 4.7 1.1 13.6 9.1 16.5 9.9 7.9 2.3 8.4-5.6 12.8-3.2s7.3 6.6 13.6 3 7.1-10.5 14.6-9.4 13.8 5.4 17.8 3.1zM63.2 314c-3.5-5.3-1.2-12-2-16.5s-7.3-3.1-8-7-.1-10.5-5.8-10.8-10.8-.4-9.7-6.7 3.6-13.2.4-18.5-3.4-10.4-10.8-13.3-7.2-15-5.8-20.2 1.2-19.8-4.2-25.1-13.6 3.5-12.6 12.5 5.6 15 4.1 20.9-6.5 21.6 5.4 26.5 12.3 9.4 12.5 15.6-.5 16.2 6.1 19.4 11.5-.4 13.9 4.4 8.7 1.4 9.4 5.7.3 7 3.1 10.6 5.7 5.1 4 2.5z" fill="#2e71f2"/><path d="M270.4 89.6c-4.1-1.6-5.5-5.5-.5-4.1a112.1 112.1 0 0 1 14.2 5.1c5.9 2.5 9.9 8.3 9.8 13.6s3 5.8 5.2 11.3a19.3 19.3 0 0 1 1.3 11.4c-.4 2.5-.6-4.4-3.7-7s-7.6-6-8.5-10.2-6.8-9.3-12.1-11.7-5.7-8.4-5.7-8.4zm52.8 67.5c-.8-6.3 3.1-7.9.7-12.7s-10.2-7.5-9.7-12.9-1-8.8 3.3-7.5 3.8 8.2 7.1 11.8 4 11.5 1.6 14.7-2.8 8.3-3 6.6z" fill="#f4606c"/><path d="M343.8 196.5c-4.2-1.8-4.7-14.3-.7-20.6s11.9-3.5 11.4 2.3c2.9.6 5 3.7 2.9 8.6s-2.1 9.4.8 12.5 2.6 8.3.9 11.8-.2 6.3-3.7 10.2-9.5 7.9-7.3 13.9c1.3 3.7 2 6.5-.8 10.2s-7.7 3.5-8.4 10.5c-.4 3.5-.5 5.3-1.1 2.6s-.8-7.7 2.4-11.3 2-8 .7-10.7-1-9.8 2.5-12.3-.2-6.7 3.4-11.6-1.2-6-2.6-7.8a6.9 6.9 0 0 1-.4-8.3z" fill="#2e71f2"/><path d="M312.1 301a7.7 7.7 0 0 1 2.4-6.7c1.5-1.1-.2-2.2 2.5-4.5s6-4 6-7.9 2.8-7.9 6-7.1-1.2 10.8-4.1 14.9-10.3 6.2-12.8 11.3zm-29.4-.6c.9-4.2 7.9-9.7 13.6-8.9 7.3 1 8 4.9 5.8 8.8-6.3 11.1-12.8 6.5-15.6 9s-.6 6.9-4.4 10.2-8.3 3.1-12.5 1.7c-.9 3-5.3 5-10.4 3.5s-9.7-4-14.6-1.6c-3.3 1.6-11.3 5.7-18.2 3.4s-11.8-6.2-20.6-3.2c-3.7 1.2-2.7.7-.5-1.2 6.9-6.2 13.8-4.9 20-2.7s11.4-2.1 14.6-4.7c4.7-3.9 9.9-3.7 17.2-2.1 5.6 1.2 8.3-.9 8.3-.9a10.2 10.2 0 0 1 7.2-9.8 28.3 28.3 0 0 1 10.1-1.5z" fill="#f4606c"/><path d="M5.3 145.2c-1.4 13.7-8.3 21.5-3.8 25.6S2.8 164 7 158s9.2-13.4 6.3-21.9-7.2 1-8 9.1z" fill="#2e71f2"/><path d="M93.8 136.3c-1-4.5-3.1-8.6-7.2-10.4a.7.7 0 0 1 0-1.3c4.1-1.8 6.2-5.9 7.2-10.4a.7.7 0 0 1 1.3 0c1 4.5 3.1 8.6 7.2 10.4a.7.7 0 0 1 0 1.3c-4.1 1.8-6.2 5.9-7.2 10.4a.7.7 0 0 1-1.3 0zm108.9-65.8c-.9-5.1-3.1-10.1-8-11.8a.4.4 0 0 1 0-.7c4.9-1.8 7.1-6.7 8-11.8a.4.4 0 0 1 .8 0c.9 5.1 3.1 10.1 8 11.8a.4.4 0 0 1 0 .7c-4.9 1.8-7.1 6.7-8 11.8a.4.4 0 0 1-.8 0zm-50.6 239.4c-.8-3.7-2.5-7.1-5.9-8.5a.5.5 0 0 1 0-.9c3.4-1.4 5.1-4.8 5.9-8.5a.5.5 0 0 1 .9 0c.8 3.7 2.5 7.1 5.9 8.5a.5.5 0 0 1 0 .9c-3.4 1.4-5.1 4.8-5.9 8.5a.5.5 0 0 1-.9 0zm-92.5-86.1c-.9-4.5-3-8.7-7.2-10.4a.5.5 0 0 1 0-1c4.2-1.7 6.3-5.9 7.2-10.4a.5.5 0 0 1 1.1 0c.9 4.5 3 8.7 7.2 10.4a.5.5 0 0 1 0 1c-4.2 1.7-6.3 5.9-7.2 10.4a.5.5 0 0 1-1.1 0zM280 195.9c-.6-2.9-2-5.6-4.6-6.7a.4.4 0 0 1 0-.7c2.7-1.1 4-3.8 4.6-6.7a.4.4 0 0 1 .8 0c.6 2.9 2 5.6 4.6 6.7a.4.4 0 0 1 0 .7c-2.7 1.1-4 3.8-4.6 6.7a.4.4 0 0 1-.8 0zm18.9 27.2c-1-4.2-3.1-8-6.9-9.8a.8.8 0 0 1 0-1.4c3.8-1.8 5.8-5.6 6.9-9.8a.8.8 0 0 1 1.5 0c1 4.2 3.1 8 6.9 9.8a.8.8 0 0 1 0 1.4c-3.8 1.8-5.8 5.6-6.9 9.8a.8.8 0 0 1-1.5 0z" fill="#fff"/></svg>