<svg xmlns="http://www.w3.org/2000/svg" viewBox="0 0 179.1 174.8"><title>Asset 4</title><path fill="#fff" d="M26.1 1.8H42l15.9.5L73.8.2h15.9l15.9.7 15.9 2.2 15.9-3 15.9-.1 16.1 9.9 7 16 .6 16 2.1 16-1.7 32.4-.7 31.8-5.7 17.3-17.7 7.8-16.8.6-16.9-1.6-16.8.7-16.9.3-16.9-1.5-38.8 29.1-1.4-28.5L8.9 139l-7.2-17.2.3-16 .7-15.9-.9-16 .2-16-.5-16-1.5-16L8.7 8.6l17.4-6.8z"/><path d="M43.2 53.3l4.2-.2h4.1l1.2.2 1.2.3 1.6.2h1.6q1.4.2 1.4 1.1t-1.3 1.4l-2.3.4-2.3.3-1.6.2-1.6.2-3.4.5a9.6 9.6 0 0 1-3.5-.4L40 57l-2.3-.4a3.9 3.9 0 0 1-2.4-1.1 4.9 4.9 0 0 1-1.2-2.4 13.7 13.7 0 0 1-.5-3.7v-3.7a27.9 27.9 0 0 1 .3-3.6q.5-3.8 1.1-7.6t1.2-7.5q.4-2.5 1-4.9l1.1-4.9a7.7 7.7 0 0 1 .4-1.6l.6-1.5.5-.7.7-.7a1.6 1.6 0 0 1 .9-.3l6.3 1q1.8.3 1.6 2.4l-.5 4.1q-.2 2-.6 4.1l-.9 5.3q-.4 2.6-1 5.3l-3 16.2q-.1.7-.2 1.3zm23.7-6.8a16 16 0 0 0-.5 3.8 5.7 5.7 0 0 0 1.5 3.6 2.6 2.6 0 0 0 1-.3l1.3-.7 1.5-1.3a19.5 19.5 0 0 0 2.1-1.9 19.1 19.1 0 0 0 3-3.5 43.8 43.8 0 0 1 2.7-3.5l2.7-3.9.5-.9.4-.5a.6.6 0 0 1 .6-.1l1.2.4 1.3.3 1.1.3.6.4q.1.3-.5 1.5l-1.6 2.6-4.3 5.7c-.7 1-1.6 1.8-2.1 2.5a18.2 18.2 0 0 1-1.7 2l-2 2a7.2 7.2 0 0 1-3.7 1.8 10 10 0 0 1-3.7-.2l-1.8-.5-1.8-.4a6.8 6.8 0 0 1-5.1-4.2 14.9 14.9 0 0 1-1.2-5.4 18.1 18.1 0 0 1 .7-5.4l1.1-3.1a20.5 20.5 0 0 1 1.5-3l1.1-1.7 1.3-1.5 1.4-1.3 1.5-1.2a6.4 6.4 0 0 1 5.4-1.2l1.6.4 1.7.2a4.3 4.3 0 0 1 3 1.5 4.7 4.7 0 0 1 .8 3.4 13.2 13.2 0 0 1-1.2 4.1 11.3 11.3 0 0 1-2.6 3.5l-2.9 2.5-3.1 2.2-1.3.8a3.2 3.2 0 0 1-1.5.2zm6.8-15.3a5.8 5.8 0 0 0-1.5 1.5 19.9 19.9 0 0 0-1.6 2.5 24.7 24.7 0 0 0-1.4 2.8 8.3 8.3 0 0 0-.6 2.5 13.2 13.2 0 0 0 2.5-2.1 11.3 11.3 0 0 0 1.8-2.4 7.7 7.7 0 0 0 .9-2.4 5.2 5.2 0 0 0-.2-2.3z" fill="#3649a3"/><path d="M91.3 53.7l1.7-2a15.1 15.1 0 0 0 1.6-2.1l3.6-5.4 3.5-5.5 1.2-1.9 1.3-2.1a.5.5 0 0 1 .7-.3l2.2.4a4.3 4.3 0 0 1 2 .9q.3.3 0 1l-.7 1.3-2.6 4.7-2.6 4.7-1 1.6-1.2 1.8-1.9 2.5-2 2.4a5.7 5.7 0 0 1-1.7 1.4l-1.9.8h-1.1l-1.2-.2-1.7-.4-1.7-.4a5.6 5.6 0 0 1-4.1-2.1 8.5 8.5 0 0 1-1.8-4.2 25.7 25.7 0 0 1-.2-5.5q.2-2.7.6-5.5a42.9 42.9 0 0 1 1.1-5q.7-2.5 1.6-4.9l.6-1.9.6-2-1.7-.5-1.7-.4-1.8-.4-2.1-.5q-.9-.1-1.1-.4t.2-1.1l.2-.6h.9l4.1-.7 4.2-.7.9-.4a1.8 1.8 0 0 0 .6-.8l1.1-2 1.1-1.9.5-.7.6-.7a1.5 1.5 0 0 1 .8-.5h1l3 .6 3 .5q2.3.3 1.9 2.4l-.4 2.2v.3l1.5.2 1.6.2h.9q1.1.1 1.3.5a1.9 1.9 0 0 1 0 1.4v.5l-.2.3-1.9.2-2.1.2h-1.8a2.1 2.1 0 0 0-1.2.4 3.2 3.2 0 0 0-.8 1Q97.2 28.3 96 32t-2.3 7.4l-1 3.1q-.5 1.5-.9 3t-.8 3.7a12.9 12.9 0 0 0-.1 3.7v.7h.3zm25.5-44a3.9 3.9 0 0 1 1.6 5.7l-.7 1.2-.3.6-.3.6a12.9 12.9 0 0 1-1.1 1.8l-.6.9-.6.9-.3-.5-.2-.4-.4-.9-.9-2-.8-2a4.8 4.8 0 0 1 0-3.3 4.5 4.5 0 0 1 2-2.5 2.6 2.6 0 0 1 2.6-.1zm29.6 19.8a1.2 1.2 0 0 1-.1 1.1l-.8.7-3 1.5-3 1.6-1.4 1-1.3 1a5.8 5.8 0 0 1 1 2.6 23.3 23.3 0 0 1 .4 3.8 31.3 31.3 0 0 1-.1 3.6 4.3 4.3 0 0 1-.6 2.1 15.2 15.2 0 0 1-1.1 3.1 13.5 13.5 0 0 1-1.8 2.8A4.6 4.6 0 0 1 130 56l-3.2-.6-3.2-.5a4.7 4.7 0 0 1-2.5-1.2 5.6 5.6 0 0 1-1.4-2.4 11.9 11.9 0 0 1 2-11.2 13.2 13.2 0 0 1 1.8-2l2-1.8h-.1l-.5-.5-.5-.4-1.4-1.2-1.4-1.1a5.6 5.6 0 0 1-2.1-2.4 7.4 7.4 0 0 1-.6-3.1 11.3 11.3 0 0 1 2.5-7 2.5 2.5 0 0 1 2.5-1.1h3.7a1.6 1.6 0 0 1 1 .2c.2.1.2.4.2.9v1.5a8.4 8.4 0 0 1-.3 1.5q-.3 1.1-.8 2.3l-.9 2.3a2.3 2.3 0 0 0-.2 1.2c.1.2.3.5.8.8l1.4.5 1.5.5 1.7.7.4.3.5.3.6.4 2.5-1.4 2-1.5 1.4-.7 1.4-.6a1.9 1.9 0 0 1 1.2-.1l1.9.4 1.9.4h.5zM127 49.9a12.9 12.9 0 0 0 1-3.5 25 25 0 0 0 .2-3.4 9.3 9.3 0 0 0-1.6 3.1 6.4 6.4 0 0 0 .4 3.8zM22 67.3h14.9a128.9 128.9 0 0 0 14.9-.9l.2.9v7.6a2.5 2.5 0 0 1-.2 1.4 2.3 2.3 0 0 1-1.3.4l-8.6.9-1.5.3a2.6 2.6 0 0 0-.3 1.5l-.4 12.4q-.2 7.2-.3 12.4t0 12.4v14.9h-7.3l.5-13.5.4-13.4q.1-5.1.2-12.4V79.6a6.8 6.8 0 0 0-.1-1v-1h-5.4a22.1 22.1 0 0 1-5.3-.5 25.6 25.6 0 0 1-.5-5.1 18.9 18.9 0 0 1 .1-4.7zm59.7 61.4l-3.1-11.4-1.8-6.6-.8-3a3 3 0 0 0-2.2-.8h-6.5a1.9 1.9 0 0 0-1.1.2 2.2 2.2 0 0 0-.5 1l-.4 1.9-.4 1.9-3.3 15-.7 4.6h-8.1l.2-1.3.5-2.5.5-2.5 1-4.9 1.5-6.7L58 107l1-4.2.9-4.1 1.3-6.7 1.5-6.5 2.2-9.5 2.3-9.4v-.3l.2-.3a2.1 2.1 0 0 1 2.1 1 23.4 23.4 0 0 1 2 3.1 87.8 87.8 0 0 1 5.8 13.7q2.7 7.6 5 15.2a210.7 210.7 0 0 1 5 21.3q.5 2.6 1.2 6.9l.2.9.2 1.5v.2l.3 1.6h-7zm36.3.8a2 2 0 0 1 0 .8v1.1H96.5l-.3-2.9a1.7 1.7 0 0 1-.1-.5v-.5l-1-15.8-.4-7.7-.4-7.7-.2-10.3-.2-10.2V66h7.4v1.8a10 10 0 0 1 .1 1.3l.5 15.9.5 15.9q.1 3.8.4 9.2l.5 9.3a2.5 2.5 0 0 0 .3 1.3 2.2 2.2 0 0 0 1.3.5l10.6 1.4a3.6 3.6 0 0 1 1.7.5 3.2 3.2 0 0 1 .4 1.7v1.6zm35.2-64.1l3.6.2 3.7.2h.5a9.9 9.9 0 0 1-2.1 5.4 19.5 19.5 0 0 0-1.7 2.2l-.8 1.1-.8 1.1-1 1.3-1 1.3-2 2.6-2 2.6-2.4 2.9-2.4 2.9-2 2.6-2 2.5a2.7 2.7 0 0 0-.6 2.3l.7 3.6.7 3.7 1 5.5q.6 3.2 1.1 5.5a17.8 17.8 0 0 0 3 7 2 2 0 0 0 2 .8 8.1 8.1 0 0 0 3.9-1.6l1.8-1.4.9-.8 1-.8.5.6.5.6.9 1.2a1 1 0 0 1 .1.7 1.3 1.3 0 0 1-.3.7 38.2 38.2 0 0 1-2.5 3.6 21.7 21.7 0 0 1-2.3 2.6 7.7 7.7 0 0 1-4.2 2.9 6.9 6.9 0 0 1-4.6-1.5 14.3 14.3 0 0 1-4.5-6.1 53.1 53.1 0 0 1-4.2-18.2 3.6 3.6 0 0 0-1.5-3l-.5.5-.6.5-1.1 1.1a4.4 4.4 0 0 0-1.2 2.9q-.2 4-.5 10.4l-.5 10.4q-.1 1.3-.2 1.8v1.5h-6.8V130a10.8 10.8 0 0 1 0-1.1v-.9l.8-20 .5-11.5.5-11.5.2-6.9V66h7.7v3l-.3 18.6v4l.2 1.4.4-.5.4-.4.6-.8 5.7-7.7 5.6-7.8 3.5-4.8 3.6-4.8.5-.5z" fill="#3649a3"/></svg>