<svg xmlns="http://www.w3.org/2000/svg" viewBox="0 0 150.9 150.9"><title>Asset 2</title><path fill="#fff" d="M33.2 106.4l-1.1-1.5-6.7-.1 6.9-4.8-1.5-2.1-10.5 7.4 1.5 2.1 8.5-.1-2.9 8 1.5 2.1 10.4-7.4-1.4-2.1-6.9 4.9 2.2-6.4zm-3.8-12.5l-3.7-.4-1.7-5.8 2.8-2.4-.8-2.7-10.7 9.1.9 3.2 13.9 1.8zm-11.1-1.4l3.9-3.3 1.2 3.9zm5.6-11.4v1.3h2.2l.1-2.4-2.4-2.6-8.4-.9.1-4.8 10.6.2v-2.6l-12.8-.2-.1 9.8 9.7 1 1 1.2zm3-16l-2.8-2.4 1.8-5.7 3.7-.4.8-2.7-13.9 1.6-1 3.2 10.6 9.2zm-4.6-4l-3.9-3.3 5.1-.5zM22 43.5l.5 3.2L26 49l2.9-.7 1.8 5.2 1.7-2.6-1.9-4.8 2.2-3.1 3.5 2.4 1.4-2.1L27 36zm8.9-1.7L28 46.1l-1.3.3-2-1.3-.2-1.3 2.9-4.3zm16.5-22.3l-2.6 1.7-.4 6.6-1.9 1.2-2.9-4.5-2.1 1.4 6.9 10.8 2.2-1.4-2.9-4.5 2.1-1.3 6.2 2.3 2.7-1.7-7.8-2.8.5-7.8zm14.1-4.8l-9 2.7 3.6 12.3 2.5-.7-1.1-3.7 6.6-1.9 1.7-2.8-1.3-4.4zm.8 6.8l-5.4 1.6-1.3-4.4 5.4-1.6 1.2.6.8 2.6zm12.9-.4l-4.4-7.8H68l5.4 9.7.8-.1-1.5 3.2 2.7-.1 6.4-12.9-2.7.1-3.9 7.9zm21.6-4.4l-10-2.6-3.2 12.4 2.4.6 2.7-10.2 7.5 1.9.6-2.1zm13 6.5l-6.4-3.7-3.4.8-4.2 7.3 1 3.3 6.4 3.7 3.4-.8 4.2-7.3zm-4.9 8.6l-1.6.4-4.4-2.5-.5-1.7 3.3-5.7 1.6-.4 4.4 2.5.5 1.5zm6.7 6.7l-.1-1.6 4.5-4.3 1.6.1 5.2 5.3 1.6-1.5-6-6.2-3.5-.2-5.8 5.6.1 3.5 5.9 6.2 1.6-1.5-5.1-5.4zm9.6 17.7l2.7 1 2.8-1.5.7-2.4 1.4.6 2.7-1.4.7-2.8-4.4-8.3-11.3 6zm5.9-11.6l2.7 5-.2.9-1.3.7-1.3-.5-2.6-4.7zm-1.8 7.8l-.3 1.3-1.5.8-.9-.3-3-5.6 2.8-1.5zm-.2 19l2.2-.5-1.8-8.4 3.1-.6 1.3 6.2 2.1-.4-1.3-6.3 3.1-.6 1.7 8.2 2.1-.4-2.2-10.8-12.6 2.6 2.3 11zm10.7 1.6l-.3 4.8-10.6-.7-.2 2.6 10.6.6-.2 4.8 2.2.1.7-12.1-2.2-.1zm-12.6 15.8l5 1.7-.8 2.3-6.3 2.1-1 3 7.8-2.7 4.4 6.4 1-2.9-3.7-5.4.7-2.1 5 1.7.8-2.4-12.1-4.2-.8 2.5z"/><path d="M118.5 100.2l1.9 3.1-3.5 4.9-3.6-.7-1.6 2.3 13.8 2.7 1.9-2.7-7.2-12zm5.8 9.6l-5-1 2.3-3.3z" fill="#fff"/><path d="M75.5 0a75.4 75.4 0 0 0-37.8 140.8v8.9A1.3 1.3 0 0 0 39 151h55l.6-.2 18.2-9.8A75.4 75.4 0 0 0 75.5 0zm-10 148.3H51.7c6.2-8.3 10.9-19.7 13.8-30.3zm-15.1-2.6v-11.2c1.8-2 9.6-11.3 14.8-26.6-2.2 12-7.4 27.2-14.9 37.9zM48.1 133a1.3 1.3 0 0 0-.4.9v14.4h-7.4v-16.9l25.1-35c-4.6 23.1-17.2 36.5-17.3 36.7zm-3.4-59.6l-1-.3v-.9h3.4a6.4 6.4 0 0 0 .1.9l.2.8 1.1 3.2 1 3.1h.1l.9-3.1.9-3.5-1.5-.6v-.9H54v.9l-.7.5-.5.6-.4.7-.3.7-2.3 6.9-1.7.3-1.2-3-1.1-3h-.1l-1.1 3-1 2.7-1.6.3-3.6-9.4-1-.3v-.9h3.3a5.8 5.8 0 0 0 .1.9l.2.8.9 2.9 1.2 3.5h.1l1.1-3.4.6-1.7zM58 75.5a17.4 17.4 0 0 1 28.3-13.7l-16 6.3-11.3 13a17.3 17.3 0 0 1-1-5.6zm11.7-33v-.9h3.7l.3.5.3.4 2.7 3.5 1.9 2.5h.1v-5.6l-1.7-.4v-.9h4.4v.9l-1.6.4v9.2l-1.2.2-3.9-5.1-2.2-2.9h-.1v6.5l1.5.3v1h-4.4v-.9l1.6-.4.2-7.8zm37.1 33.9v1.4h-3.3v3.4h3.5l1-1.8.7.2-.4 2.9-.2.2h-8.3v-.9l1.4-.4v-8l-1.3-.4v-.9h7.9V75l-.7.2-.7-1.7h-3v3zM54.2 90.5l16.6-19.1 7 9.8zm25.9-10.9l-7-9.8 23.6-9.3zm.6 3.3l11.3-13a17.3 17.3 0 0 1 .9 5.6 17.4 17.4 0 0 1-28.2 13.7zm12 65.5H68.1V96.3l24.6 35.1zm1.9-18.8l-24-34.2 15.4 7 23.3 24.7zm16 9.7l-15.3 8.2v-15.4l15.3-2.5zm2.6-1.6V128a1.3 1.3 0 0 0-.4-.9l-16-17a40.7 40.7 0 1 0-43.9-.8L38 130.2a1.3 1.3 0 0 0-.2.8v6.8a72.9 72.9 0 1 1 75.5 0z" fill="#fff"/></svg>