<svg xmlns="http://www.w3.org/2000/svg" viewBox="0 0 1000 300"><title>Asset 7</title><path d="M184.3 75c1 2.1.4 9.5.4 12.5s-1.3 33.5-1.3 49.1c0 11.8 1.1 26.9.7 34.9s0 19.4-.3 26.7c-.1 2.3-.7 9.3-.7 13.6 0 6.3 1.2 14.3.2 14.5-3.7.8-19.8-.3-28.2-.7-10-.5-35.7 1.1-52 .8-7.6-.1-38.1-2.1-52-1.2-7.7.5-19 .3-19-1.7 0-5 0-15.7.1-18.3s-.9-20.5-.1-28.2c1.2-10.9.5-23.1.5-26.7s.3-22.8.3-26.6c-.2-7-.7-19.9-.7-24.6s.9-10.2.5-15.7-.6-8.5-.5-8.6 9-.8 14-.8l23.2.7c1.8.1 14.4-.9 19.1-.9s18.3.3 26.3-.3a412.6 412.6 0 0 1 45.1.1c4.5.3 24 .6 24.4 1.4zM18.1 61.6c0 4.8.2 5.1.2 12s1 62.3 1 69.2-.6 16.7-.6 23.6c0 13.3-.2 61.2.3 72 .1 2.1 2 1.9 3.2 1.9 2.7 0 22.7-.7 29.7-.7s20.4-.6 27.3-.6 28.8.8 35.7.8 13.6-.8 20.5-.8 18.3-.4 25.3-.4 29.6.8 31.3.8c5.4 0 5.7-.1 5.4-10-.4-15.9 1.2-37.9 1.2-44.8s-1.1-48.2-1.1-55.1c0-9.1 1.3-35.1 1.3-42.1s1.1-21-1.5-25.1c-1.5-1.5-8.4-1.4-13.2-1.4-6.9 0-48.5-1.4-55.4-1.4S66.3 61 59.3 61s-41.2-1.8-41.2.6z" fill="#f4606c"/><path d="M590.2 149.8c0 4.8.1 9.6-.6 14.2a91.5 91.5 0 0 1-3.1 13.9 131.3 131.3 0 0 1-5.3 14.4c-5.2 11-10.8 15-19.9 25.5-3.1 3.5-15.9 11-20.1 13.1s-8.9 3.3-13.4 4.8-9.2 1.5-13.9 2.3-9.2 2.1-14 2.1a91.1 91.1 0 0 1-14.1-1.1c-4.7-.7-9-2.9-13.4-4.3a87.6 87.6 0 0 1-12.9-5.4c-4.2-2.2-9.2-3.2-13.4-5.2-14.5-7-25.4-28.4-27.5-32.6s-2.3-9.3-3.7-13.8-5-12.2-5-27.7c0-19.9 9.4-35.9 11.5-40.1s3.8-8.5 6.6-12.3 4.9-8.1 8.2-11.5 7.5-6 11.3-8.7a86.6 86.6 0 0 1 11.7-7.4c4.2-2.1 8.8-2.8 13.4-4.3s8.7-3.3 13.4-4 9.2-2 14-2a121.3 121.3 0 0 1 27.8 4.5 89.2 89.2 0 0 1 12.9 5.7c4.2 2.2 7.7 5.3 11.5 8a88.3 88.3 0 0 1 10.5 9.1c3.3 3.3 8.1 5.4 10.9 9.3s3.5 8.9 5.6 13.1 5.5 7.9 7 12.4a91.2 91.2 0 0 1 3.8 13.8c.8 4.5.2 9.4.2 14.2zm-196.1-14.3c-.7-4.7-2.5-8.1-3.9-12.5s-4.5-9.2-6.6-13.4a94.3 94.3 0 0 0-7.3-12.4c-2.8-3.8-4.3-6.4-7.7-9.7s-6.9-7.5-10.7-10.2-8.3-6.8-12.5-8.9-9.2-3.1-13.7-4.6a80.1 80.1 0 0 0-13.7-3.6c-14.3-2-21.8 0-25.4 0l-2.9.2a91.3 91.3 0 0 0-13.9 2.9c-4.5 1.5-8.2 4.9-12.4 7s-8.9 3.6-12.7 6.3-7.9 5.5-11.2 8.8-6 7.5-8.8 11.3a89.9 89.9 0 0 0-7.5 12 87 87 0 0 0-5.3 12.9c-1.4 4.4-3.8 9.1-4.5 13.9a93.9 93.9 0 0 0-.7 14.3 94 94 0 0 0 .7 14.3 92.4 92.4 0 0 0 3.4 14c1.5 4.5 4.8 8.8 6.9 12.9s4 8.3 6.7 12.1a92.5 92.5 0 0 0 8.9 11.1c3.3 3.3 8 5.2 11.8 8s7.2 6.3 11.4 8.5 8.9 3.1 13.4 4.6a89.1 89.1 0 0 0 13.7 3.1 57.8 57.8 0 0 0 9 .5h5c3.6 0 7.1.6 10.6.6a22.8 22.8 0 0 0 3.5-.3 88.4 88.4 0 0 0 27.2-8.3 84.6 84.6 0 0 0 11.6-7.3 99.3 99.3 0 0 0 11-9.9c3.3-3.3 7.4-6.2 10.2-10.1s3.8-8.8 6-13 3.9-7 5.4-11.5 4.1-10.3 4.8-15a93.6 93.6 0 0 0 1.3-14.3 93.5 93.5 0 0 0-1.1-14.3zm-18.6 37.6l-.6 2a64 64 0 0 1-3.4 9.2c-1.2 2.3-3.8 9.9-13.6 19.6-.9.9-7.1 6.2-9 7.6s-9.4 6.7-10.1 7a74.4 74.4 0 0 1-23 6.9h-1.4l-4.1-.2c-1.9-.2-4.2-.3-6.5-.3h-5a45.7 45.7 0 0 1-6.8-.4 74.1 74.1 0 0 1-11.6-2.6l-4.4-1.3a43.3 43.3 0 0 1-7-2.4 32.8 32.8 0 0 1-5-3.7c-1.4-1.1-2.9-2.4-4.6-3.6s-4.1-2.6-5.8-3.7c-7.2-4.3-10.3-9.2-13.3-16.1-.9-2.1-3-4.3-4.3-6.9s-6.2-10.1-8.7-22.2c-.7-3.2-.5-7.2-.5-11.4a65 65 0 0 1 4-24.3c.9-2.9 7.3-14.5 8.9-16.5l3.3-4.2a65.2 65.2 0 0 0 3.8-6 26.4 26.4 0 0 1 2.7-4.2 63.9 63.9 0 0 1 7.6-6L259 88a33 33 0 0 1 5.5-2.8l5.3-2.4a63.3 63.3 0 0 0 6.1-3.6 25.7 25.7 0 0 1 4.3-2.5c3.4-1.1 7.4-2.5 11.8-2.4 10.6.2 18.3-2 30.1 1.8l5.3 1.9c2.6.8 5.1 1.1 7.2 1.8a48.7 48.7 0 0 1 16.7 9.6 70.7 70.7 0 0 1 16.6 21.7c.7 1.6 3.9 6.2 4.9 8a56.6 56.6 0 0 1 7.7 18.8 53.9 53.9 0 0 1 1.2 12.1c-.2 4.1-5.3 20.3-6.2 23.1z" fill="#2e71f2"/><text transform="translate(473.4 140)" font-size="24" fill="#fff" font-family="Effra-Bold,Effra" font-weight="700" letter-spacing=".025em">User<tspan x="-36.3" y="28.8">Experien</tspan><tspan x="63.5" y="28.8" letter-spacing=".01em">c</tspan><tspan x="75.4" y="28.8">e</tspan></text><path d="M861.5 89.8a29.3 29.3 0 0 1-4 14.8c-2.6 4.6-5.9 9-10.4 11.6s-9.8 3.3-15.3 3.3a29.1 29.1 0 0 1-14.7-4.3c-4.6-2.6-9-5.7-11.6-10.3s-3.5-9.6-3.5-15.1.8-10.9 3.3-15.3 6.9-8.1 11.5-10.7a29.7 29.7 0 0 1 15-3.6 28 28 0 0 1 25.5 14.9 29 29 0 0 1 4.2 14.7zm120.4 120a30.3 30.3 0 0 1-3.9 15.1 31 31 0 0 1-26.2 15.4c-5.5 0-10.3-2.5-14.7-5.1s-8.8-5.9-11.4-10.4a32 32 0 0 1-.1-30.3 30.6 30.6 0 0 1 11.2-10.9 32.6 32.6 0 0 1 30.1 0 30.2 30.2 0 0 1 15.1 26.1z" fill="#f4606c"/><text transform="translate(857.3 155.6)" font-size="24" fill="#3b3d40" font-family="Effra-Bold,Effra" font-weight="700" letter-spacing=".025em">Visual</text><text transform="translate(254.7 155.1)" font-size="24" fill="#3b3d40" font-family="Effra-Bold,Effra" font-weight="700" letter-spacing=".002em">S<tspan x="14.2" y="0" letter-spacing=".025em">t</tspan><tspan x="24.9" y="0" letter-spacing=".015em">r</tspan><tspan x="34.7" y="0" letter-spacing=".025em">a</tspan><tspan x="47.6" y="0">t</tspan><tspan x="57.7" y="0" letter-spacing=".025em">e</tspan><tspan x="71.1" y="0" letter-spacing=".005em">g</tspan><tspan x="84.7" y="0" letter-spacing=".025em">y</tspan></text><text transform="translate(56.5 151.6)" font-size="24" fill="#3b3d40" font-family="Effra-Bold,Effra" font-weight="700" letter-spacing=".005em">R<tspan x="14.7" y="0" letter-spacing=".025em">esea</tspan><tspan x="66.7" y="0">r</tspan><tspan x="76.2" y="0" letter-spacing=".025em">ch</tspan></text><path d="M901.7 220.7c-6.7 0-20 .5-26.6.5s-6.7.4-13.3.4-6.7-.7-13.3-.7-27.1 3.8-27.1 1c0-1.2.8-7.2.8-14s.2-20.4.2-27.2.2-10.4.2-17.2-.8-16.8-.8-23.6m59.9-62.4c6.7 0 6.7.6 13.4.6l13.4-.2c6.7 0 6.7.3 13.4.3l13.4-.2c6.7 0 22.7-.7 26.9-.1 2.5.3-.1 7-.1 13.7s-.5 6.8-.5 13.6.6 20.4.6 27.2.4 6.8.4 13.6.2 6.8.2 13.6" fill="none" stroke="#f4606c" stroke-linecap="round" stroke-linejoin="round" stroke-width="14"/><path d="M696.5 141.5c-.8-3.3-8.2 0-15.7 0s-7.5.3-15 .3-7.5 1-15 1-7.5-1-15-1-7.5-.4-15-.4-15.3-2.6-15.2 6.8.5 18.2.5 26.4-.5 8.2-.5 16.3-1.1 34.1 0 45.7c.7 7 13.9-11.8 18.5-16.8s4.8-6 9.9-11.5 5.7-4.9 10.9-10.5 15-15.2 20.6-20.3 9.4-9.4 15.1-14.3c7.4-6.4 8.9-6.6 15.1-10.6s2.7-3.6.8-11.1z" fill="#3649a3"/><path d="M696.5 59.4c-7.4-.9-8.2.3-15.7.3s-7.5-.4-15-.4-7.5.3-15 .3-7.5.8-15 .8-7.5-.9-15-.9-13.8-1.6-14 2.6c-.3 8.5-.2 5.2-.2 12.7s-.7 7.5-.7 15-.4 7.5-.4 15 .8 7.5.8 15-.2 9.3-.2 16.8 0 8.6-.2 13c-.4 7.1 5.2-1.1 10.2-6.1s5.2-8.1 10.2-13.1 4.2-5.8 9.2-10.8 5.5-4.5 10.5-9.5 4.5-5.4 9.5-10.4 5.8-4.2 10.8-9.2 4.4-5.6 9.4-10.6 6.1-5.5 12.2-9.1 17.3-10.3 8.6-11.4zm89.9 82.1c-7.2.3-23 0-30.5 0s-7.5-.4-15-.4h-15c-7.5 0-7.5 1.1-15 1.1s-8.9-5.2-14.4.4-.7 6.9-.7 14.5.7 7.6.7 15.2-1 7.6-1 15.3.5 7.6.5 15.3c0 9.3-3 34.8.3 36.3s5.2-4.1 10.2-9.5 4.4-6.1 9.4-11.5 4.8-5.7 9.8-11.1 5.4-5 10.4-10.5 4.8-5.6 9.8-11.1 5.6-4.8 10.6-10.3 3.9-6.6 8.9-12.1 28-21.9 21-21.6z" fill="#3649a3"/><path d="M785.9 59.8h-14.3c-7.1 0-7.1.8-14.2.8s-7.1-1.5-14.3-1.5-7.1-.3-14.3-.3h-16.5c-8.3 0-8.8.8-16.9.2-6.1-.4 1.2 6.7 1.2 12.7v12.2c0 6.1-.9 6.6-.9 13.1s-.5 6.6-.5 13.1.4 8.5.4 15.1-2.7 23.8-.1 24.8c5.8 2.4 5.2-1.8 9.6-6.2s4.6-7.1 9-11.5 3.8-5.1 8.2-9.5l10.7-10.4 10.6-10.7c5.3-5.3 6.1-4.6 11.4-9.9s4.5-6.1 9.9-11.4 28.3-20.7 21-20.6z" fill="#3649a3"/><text transform="translate(648.1 155.6)" font-size="24" fill="#fff" font-family="Effra-Bold,Effra" font-weight="700" letter-spacing=".035em">C<tspan x="17.2" y="0" letter-spacing=".025em">on</tspan><tspan x="45.5" y="0" letter-spacing=".01em">c</tspan><tspan x="57.4" y="0" letter-spacing=".025em">ept</tspan></text><path fill="none" d="M0 0h1000v300H0z"/></svg>