<svg xmlns="http://www.w3.org/2000/svg" viewBox="0 0 1000 300"><title>Asset 1</title><path d="M184.3 75c1 2.1.4 9.5.4 12.5s-1.3 33.5-1.3 49.1c0 11.8 1.1 26.9.7 34.9s0 19.4-.3 26.7c-.1 2.3-.7 9.3-.7 13.6 0 6.3 1.2 14.3.2 14.5-3.7.8-19.8-.3-28.2-.7-10-.5-35.7 1.1-52 .8-7.6-.1-38.1-2.1-52-1.2-7.7.5-19 .3-19-1.7 0-5 0-15.7.1-18.3s-.9-20.5-.1-28.2c1.2-10.9.5-23.1.5-26.7s.3-22.8.3-26.6c-.2-7-.7-19.9-.7-24.6s.9-10.2.5-15.7-.6-8.5-.5-8.6 9-.8 14-.8l23.2.7c1.8.1 14.4-.9 19.1-.9s18.3.3 26.3-.3a412.6 412.6 0 0 1 45.1.1c4.5.3 24 .6 24.4 1.4zM18.1 61.6c0 4.8.2 5.1.2 12s1 62.3 1 69.2-.6 16.7-.6 23.6c0 13.3-.2 61.2.3 72 .1 2.1 2 1.9 3.2 1.9 2.7 0 22.7-.7 29.7-.7s20.4-.6 27.3-.6 28.8.8 35.7.8 13.6-.8 20.5-.8 18.3-.4 25.3-.4 29.6.8 31.3.8c5.4 0 5.7-.1 5.4-10-.4-15.9 1.2-37.9 1.2-44.8s-1.1-48.2-1.1-55.1c0-9.1 1.3-35.1 1.3-42.1s1.1-21-1.5-25.1c-1.5-1.5-8.4-1.4-13.2-1.4-6.9 0-48.5-1.4-55.4-1.4S66.3 61 59.3 61s-41.2-1.8-41.2.6z" fill="#f4606c"/><path d="M590.2 149.8a95.3 95.3 0 0 1-.6 14.2 91.5 91.5 0 0 1-3.1 13.9 131.3 131.3 0 0 1-5.3 14.4c-5.2 11-10.8 15-19.9 25.5-3.1 3.5-15.9 11-20.1 13.1s-8.9 3.3-13.4 4.8-9.2 1.5-13.9 2.3-9.2 2.1-14 2.1a91.1 91.1 0 0 1-14.1-1.1c-4.7-.7-9-2.9-13.4-4.3a87.6 87.6 0 0 1-12.9-5.4c-4.2-2.2-9.2-3.2-13.4-5.2-14.5-7-25.4-28.4-27.5-32.6s-2.3-9.3-3.7-13.8-5-12.2-5-27.7c0-19.9 9.4-35.9 11.5-40.1s3.8-8.5 6.6-12.3 4.9-8.1 8.2-11.5 7.5-6 11.3-8.7a86.6 86.6 0 0 1 11.7-7.4c4.2-2.1 8.8-2.8 13.4-4.3s8.7-3.3 13.4-4 9.2-2 14-2a121.3 121.3 0 0 1 27.8 4.5 89.2 89.2 0 0 1 12.9 5.7c4.2 2.2 7.7 5.3 11.5 8a88.3 88.3 0 0 1 10.5 9.1c3.3 3.3 8.1 5.4 10.9 9.3s3.5 8.9 5.6 13.1 5.5 7.9 7 12.4a91.2 91.2 0 0 1 3.8 13.8c.8 4.5.2 9.4.2 14.2zm-196.1-14.3c-.7-4.7-2.5-8.1-3.9-12.5s-4.5-9.2-6.6-13.4a94.3 94.3 0 0 0-7.3-12.4c-2.8-3.8-4.3-6.4-7.7-9.7s-6.9-7.5-10.7-10.2-8.3-6.8-12.5-8.9-9.2-3.1-13.7-4.6a80.1 80.1 0 0 0-13.7-3.6c-14.3-2-21.8 0-25.4 0l-2.9.2a91.3 91.3 0 0 0-13.9 2.9c-4.5 1.5-8.2 4.9-12.4 7s-8.9 3.6-12.7 6.3a86.8 86.8 0 0 0-11.2 8.8c-3.3 3.3-6 7.5-8.8 11.3a89.9 89.9 0 0 0-7.5 12 87 87 0 0 0-5.3 12.9c-1.4 4.4-3.8 9.1-4.5 13.9a93.9 93.9 0 0 0-.7 14.3 94 94 0 0 0 .7 14.3 92.4 92.4 0 0 0 3.4 14c1.5 4.5 4.8 8.8 6.9 12.9s4 8.3 6.7 12.1a92.5 92.5 0 0 0 8.9 11.1c3.3 3.3 8 5.2 11.8 8s7.2 6.3 11.4 8.5 8.9 3.1 13.4 4.6a89.1 89.1 0 0 0 13.7 3.1 57.8 57.8 0 0 0 9 .5h5c3.6 0 7.1.6 10.6.6l3.5-.3a88.4 88.4 0 0 0 27.2-8.3 84.6 84.6 0 0 0 11.6-7.3 99.3 99.3 0 0 0 11-9.9c3.3-3.3 7.4-6.2 10.2-10.1s3.8-8.8 6-13 3.9-7 5.4-11.5 4.1-10.3 4.8-15a85.8 85.8 0 0 0 .2-28.6zm-18.6 37.6l-.6 2a64 64 0 0 1-3.4 9.2 59.4 59.4 0 0 1-13.6 19.6c-.9.9-7.1 6.2-9 7.6s-9.4 6.7-10.1 7a74.4 74.4 0 0 1-23 6.9h-1.4l-4.1-.2a64.6 64.6 0 0 0-6.5-.3h-5a45.7 45.7 0 0 1-6.8-.4 74.1 74.1 0 0 1-11.6-2.6l-4.4-1.3a43.3 43.3 0 0 1-7-2.4 32.8 32.8 0 0 1-5-3.7c-1.4-1.1-2.9-2.4-4.6-3.6s-4.1-2.6-5.8-3.7c-7.2-4.3-10.3-9.2-13.3-16.1-.9-2.1-3-4.3-4.3-6.9s-6.2-10.1-8.7-22.2c-.7-3.2-.5-7.2-.5-11.4a65 65 0 0 1 4-24.3c.9-2.9 7.3-14.5 8.9-16.5l3.3-4.2a65.2 65.2 0 0 0 3.8-6 26.4 26.4 0 0 1 2.7-4.2 63.9 63.9 0 0 1 7.6-6L259 88a33 33 0 0 1 5.5-2.8l5.3-2.4a63.3 63.3 0 0 0 6.1-3.6 25.7 25.7 0 0 1 4.3-2.5c3.4-1.1 7.4-2.5 11.8-2.4 10.6.2 18.3-2 30.1 1.8l5.3 1.9c2.6.8 5.1 1.1 7.2 1.8a48.7 48.7 0 0 1 16.7 9.6 70.7 70.7 0 0 1 16.6 21.7c.7 1.6 3.9 6.2 4.9 8a56.6 56.6 0 0 1 7.7 18.8 53.9 53.9 0 0 1 1.2 12.1c-.2 4.1-5.3 20.3-6.2 23.1z" fill="#2e71f2"/><path d="M474.8 124h3.6v9.5a6 6 0 0 0 .2 1.4 2.8 2.8 0 0 0 .5 1.1 2.4 2.4 0 0 0 .9.7l1.5.3 1.4-.3a2.4 2.4 0 0 0 .9-.7 2.8 2.8 0 0 0 .5-1.1 6 6 0 0 0 .2-1.4V124h3.7v9.9a7.2 7.2 0 0 1-.5 2.6 5.7 5.7 0 0 1-1.3 2.1 6.2 6.2 0 0 1-2.1 1.3 7.7 7.7 0 0 1-2.8.5 7.9 7.9 0 0 1-2.8-.5 5.9 5.9 0 0 1-2.1-1.3 5.8 5.8 0 0 1-1.3-2.1 7.2 7.2 0 0 1-.5-2.6zm17.9 12.5a4.4 4.4 0 0 0 1.5.8 5 5 0 0 0 1.7.3l1.3-.2a.7.7 0 0 0 .5-.7.8.8 0 0 0-.1-.4l-.4-.3-.8-.3-1.3-.4-1.3-.4-1.1-.7a3.2 3.2 0 0 1-.8-1 3.1 3.1 0 0 1 .1-2.8 3.5 3.5 0 0 1 1-1.1 4.7 4.7 0 0 1 1.5-.7l1.9-.3a8.8 8.8 0 0 1 2.5.3 7.2 7.2 0 0 1 2 .9l-1.5 2.3-1.3-.6a4.2 4.2 0 0 0-1.6-.3 2.2 2.2 0 0 0-1.2.2.7.7 0 0 0-.4.6q0 .6.7.8l2 .6a5.3 5.3 0 0 1 2.5 1.3 3.2 3.2 0 0 1 .8 2.2 3 3 0 0 1-.4 1.6 3.5 3.5 0 0 1-1.1 1.1 5.3 5.3 0 0 1-1.6.7l-1.8.2a9.8 9.8 0 0 1-2.9-.4 5.1 5.1 0 0 1-2.2-1.2zm21.7 2.3l-.6.4-1 .5-1.5.5-1.9.2a7.2 7.2 0 0 1-2.6-.4 5.6 5.6 0 0 1-2-1.2 5.2 5.2 0 0 1-1.2-1.9 6.9 6.9 0 0 1-.4-2.5 6.6 6.6 0 0 1 .4-2.3 5.7 5.7 0 0 1 1.1-1.9 5.6 5.6 0 0 1 1.8-1.3 5.9 5.9 0 0 1 2.4-.5 5.6 5.6 0 0 1 2.4.5 5 5 0 0 1 1.7 1.3 5.8 5.8 0 0 1 1.1 2 9 9 0 0 1 .4 2.6v.6h-8a2.1 2.1 0 0 0 .8 1.6 3.1 3.1 0 0 0 2.1.7 5.2 5.2 0 0 0 2.2-.4l1.2-.7zm-3-5.6a2 2 0 0 0-.1-.7l-.4-.7-.7-.5-1-.2-1.1.2-.8.5-.5.7a1.9 1.9 0 0 0-.2.7zm5.8-4.5h3.3v1.4a5.2 5.2 0 0 1 1.2-1.1 3.3 3.3 0 0 1 2-.5h.8l.6.2-.6 3-1.2-.2a2.7 2.7 0 0 0-2 .7 2.8 2.8 0 0 0-.8 2.1v5.7H517zm-78.5 24.1h10.9v3.2h-7.3v3.1h5.7v3.1h-5.7v3.5h7.8v3.2h-11.4zm17.2 10.4l-4.1-5.6h4.2l2 3 2-3h3.8l-4 5.4 4.3 5.9H460l-2.2-3.2-2.3 3.2h-3.8zm10.2-5.7h3.3v1.2a3.6 3.6 0 0 1 1.4-1.1 4.5 4.5 0 0 1 1.8-.4 4.7 4.7 0 0 1 2.2.5 4.6 4.6 0 0 1 1.6 1.3 5.6 5.6 0 0 1 .9 1.8 7.5 7.5 0 0 1 .3 2.1 6.5 6.5 0 0 1-.5 2.7 5.6 5.6 0 0 1-1.4 1.9 5.5 5.5 0 0 1-1.9 1.1 6.4 6.4 0 0 1-2.1.4h-1.3l-1-.3v4.9H466zm3.4 8.3a3.6 3.6 0 0 0 2 .5 2.5 2.5 0 0 0 2-.9 3.4 3.4 0 0 0 .7-2.3 4.4 4.4 0 0 0-.1-1.1 2.8 2.8 0 0 0-.4-.9 2.1 2.1 0 0 0-.7-.6l-1.1-.2-1 .2-.7.6a2.5 2.5 0 0 0-.5.8 2.9 2.9 0 0 0-.2.9zm21.5 1.8l-.6.4-1 .5-1.5.5-1.9.2a7.2 7.2 0 0 1-2.6-.4 5.6 5.6 0 0 1-2-1.2 5.2 5.2 0 0 1-1.2-1.9 6.9 6.9 0 0 1-.4-2.5 6.6 6.6 0 0 1 .4-2.3 5.7 5.7 0 0 1 1.1-1.9 5.5 5.5 0 0 1 1.8-1.3 5.9 5.9 0 0 1 2.4-.5 5.6 5.6 0 0 1 2.4.5 5 5 0 0 1 1.7 1.3 5.8 5.8 0 0 1 1.1 2 9 9 0 0 1 .4 2.6v.6h-8a2.1 2.1 0 0 0 .8 1.6 3.1 3.1 0 0 0 2.1.7 5.2 5.2 0 0 0 2.2-.4l1.2-.7zm-3-5.6a2 2 0 0 0-.1-.7l-.4-.7-.7-.5-1-.2-1.1.2-.8.5-.5.7a1.9 1.9 0 0 0-.2.7zm5.8-4.5h3.3v1.5a5.2 5.2 0 0 1 1.2-1.1 3.3 3.3 0 0 1 2-.5h.8l.6.2-.6 3-1.2-.2a2.7 2.7 0 0 0-2 .7 2.8 2.8 0 0 0-.8 2.1v5.6h-3.5zm10-4.7h3.7v3.1h-3.7zm.1 4.8h3.5v11.3H504zm17.4 10l-.6.4-1 .5-1.5.5-1.9.2a7.2 7.2 0 0 1-2.6-.4 5.6 5.6 0 0 1-2-1.2 5.2 5.2 0 0 1-1.2-1.9 6.9 6.9 0 0 1-.4-2.5 6.6 6.6 0 0 1 .4-2.3 5.7 5.7 0 0 1 1.1-1.9 5.6 5.6 0 0 1 1.8-1.3 5.9 5.9 0 0 1 2.4-.5 5.6 5.6 0 0 1 2.4.5 5 5 0 0 1 1.7 1.3 5.8 5.8 0 0 1 1.1 2 9 9 0 0 1 .4 2.6v.6h-8a2.1 2.1 0 0 0 .8 1.6 3.1 3.1 0 0 0 2.1.7 5.2 5.2 0 0 0 2.2-.4l1.2-.7zm-3-5.6a2 2 0 0 0-.1-.7l-.4-.7-.7-.5-1-.2-1.1.2-.8.5-.5.7a1.9 1.9 0 0 0-.2.7zm5.8-4.5h3.3v1.2a4 4 0 0 1 1.5-1.1 4.5 4.5 0 0 1 1.9-.4 4.1 4.1 0 0 1 3.1 1.2 4.7 4.7 0 0 1 1.1 3.4v7h-3.5v-6.5a2.2 2.2 0 0 0-.5-1.5 1.6 1.6 0 0 0-1.3-.6l-1 .2-.7.5a2.2 2.2 0 0 0-.4.8 3 3 0 0 0-.1.9v6h-3.4zm24.2 9.8a5.9 5.9 0 0 1-1.8 1.3 6.1 6.1 0 0 1-2.7.6 6.7 6.7 0 0 1-2.5-.4 5.5 5.5 0 0 1-1.9-1.2 5.7 5.7 0 0 1-1.2-1.9 6.4 6.4 0 0 1-.4-2.4 6 6 0 0 1 .5-2.3 6 6 0 0 1 1.3-1.9 5.8 5.8 0 0 1 1.9-1.3 6.2 6.2 0 0 1 2.4-.5 6.5 6.5 0 0 1 2.7.5 5.7 5.7 0 0 1 1.9 1.3l-2.1 2.3-.9-.8a2.8 2.8 0 0 0-1.5-.3l-1.1.3-.8.7a2.8 2.8 0 0 0-.5.9 3.6 3.6 0 0 0-.2 1.1 3.4 3.4 0 0 0 .2 1.1 3 3 0 0 0 .5 1l.8.7 1.1.3a2.9 2.9 0 0 0 1.5-.3l1-.8zm12.4.3l-.6.4-1 .5-1.5.5-1.9.2a7.2 7.2 0 0 1-2.6-.4 5.6 5.6 0 0 1-2-1.2 5.2 5.2 0 0 1-1.2-1.9 6.9 6.9 0 0 1-.4-2.5 6.6 6.6 0 0 1 .4-2.3 5.7 5.7 0 0 1 1.1-1.9 5.5 5.5 0 0 1 1.8-1.3 5.9 5.9 0 0 1 2.4-.5 5.6 5.6 0 0 1 2.4.5 4.9 4.9 0 0 1 1.7 1.3 5.8 5.8 0 0 1 1.1 2 8.9 8.9 0 0 1 .4 2.6v.6h-8a2.1 2.1 0 0 0 .8 1.6 3.1 3.1 0 0 0 2.1.7 5.2 5.2 0 0 0 2.2-.4l1.2-.7zm-3-5.6a2 2 0 0 0-.1-.7l-.4-.7-.7-.5-1-.2-1.1.2-.8.5-.5.7a1.9 1.9 0 0 0-.2.7z" style="isolation:isolate" fill="#fff"/><path d="M861.5 89.8a29.3 29.3 0 0 1-4 14.8c-2.6 4.6-5.9 9-10.4 11.6s-9.8 3.3-15.3 3.3a29.1 29.1 0 0 1-14.7-4.3c-4.6-2.6-9-5.7-11.6-10.3s-3.5-9.6-3.5-15.1.8-10.9 3.3-15.3 6.9-8.1 11.5-10.7a29.7 29.7 0 0 1 15-3.6 28 28 0 0 1 25.5 14.9 29 29 0 0 1 4.2 14.7zm120.4 120a30.3 30.3 0 0 1-3.9 15.1 31 31 0 0 1-26.2 15.4c-5.5 0-10.3-2.5-14.7-5.1s-8.8-5.9-11.4-10.4a32 32 0 0 1-.1-30.3 30.6 30.6 0 0 1 11.2-10.9 32.6 32.6 0 0 1 30.1 0 30.2 30.2 0 0 1 15.1 26.1z" fill="#f4606c"/><path d="M857.5 139.6h4l3.9 11.7 3.8-11.7h3.8l-5.9 16h-3.8zm17.5 0h3.7v3.1H875zm.1 4.8h3.5v11.3h-3.5zm7.9 7.7a4.4 4.4 0 0 0 1.5.8 5 5 0 0 0 1.7.3l1.3-.2a.7.7 0 0 0 .5-.7.8.8 0 0 0-.1-.4l-.4-.3-.8-.3-1.3-.4-1.3-.4-1.1-.7a3.2 3.2 0 0 1-.8-1 3.1 3.1 0 0 1 .1-2.8 3.5 3.5 0 0 1 1-1.1 4.7 4.7 0 0 1 1.5-.7l1.9-.3a8.8 8.8 0 0 1 2.5.3 7.2 7.2 0 0 1 2 .9l-1.5 2.3-1.3-.6a4.2 4.2 0 0 0-1.6-.3 2.2 2.2 0 0 0-1.2.2.7.7 0 0 0-.4.6q0 .6.7.8l2 .6a5.3 5.3 0 0 1 2.5 1.3 3.2 3.2 0 0 1 .8 2.2 3 3 0 0 1-.4 1.6 3.5 3.5 0 0 1-1.1 1.1 5.3 5.3 0 0 1-1.6.7l-1.8.2a9.8 9.8 0 0 1-2.9-.4 5.1 5.1 0 0 1-2.2-1.2zm10.9-7.8h3.5v6.5a2.3 2.3 0 0 0 .5 1.5 1.7 1.7 0 0 0 1.4.6l.9-.2.7-.5a2.2 2.2 0 0 0 .4-.8 3.1 3.1 0 0 0 .1-.9v-6.1h3.4v11.3h-3.3v-1.2a4.2 4.2 0 0 1-1.5 1.1 4.4 4.4 0 0 1-1.9.4 4.1 4.1 0 0 1-3.1-1.2 4.7 4.7 0 0 1-1.1-3.4zm20.6 10.2a3.7 3.7 0 0 1-1.5 1 5.1 5.1 0 0 1-2 .4l-1.3-.2-1.2-.6a3.1 3.1 0 0 1-.9-1.1 3.4 3.4 0 0 1-.4-1.7 3.8 3.8 0 0 1 .4-1.8 3.7 3.7 0 0 1 1.1-1.3 5 5 0 0 1 1.6-.8l2.1-.3h2v-.2a1.4 1.4 0 0 0-.2-.7l-.5-.5-.7-.3h-.8a5.4 5.4 0 0 0-1.9.3l-1.3.6-1.4-2.1.8-.5 1.1-.5 1.4-.3h1.8a4.8 4.8 0 0 1 3.8 1.4 5.4 5.4 0 0 1 1.2 3.7v6.6h-3.2zm0-3.9h-1.2a3.8 3.8 0 0 0-2 .4 1.3 1.3 0 0 0-.6 1.2q0 1.4 1.7 1.4h.8l.7-.4.5-.6a1.8 1.8 0 0 0 .2-.8zm6.4-11h3.5v16h-3.5zm-663.4 10.7l.7.7.9.6 1.1.5 1.3.2h.8l.7-.3.5-.6a1.3 1.3 0 0 0 .2-.7 1.5 1.5 0 0 0-.9-1.4 11.9 11.9 0 0 0-2.7-1l-1.7-.6a5.3 5.3 0 0 1-1.3-1 4.2 4.2 0 0 1-.9-1.3 4.2 4.2 0 0 1-.3-1.7 5 5 0 0 1 .4-1.9 4.4 4.4 0 0 1 1.1-1.6 5.2 5.2 0 0 1 1.8-1.1 7.6 7.6 0 0 1 2.6-.4l2.2.3 1.6.6 1.1.7.6.6-2.1 2.3-.6-.5-.8-.5-.9-.4h-1.8l-.7.3-.5.5a1.1 1.1 0 0 0-.2.6 1.5 1.5 0 0 0 .9 1.3 8.4 8.4 0 0 0 2.4.8l1.7.6a5.7 5.7 0 0 1 1.5 1 4.5 4.5 0 0 1 1.1 1.5 5 5 0 0 1 .4 2.1 4.2 4.2 0 0 1-.5 2 5.1 5.1 0 0 1-1.3 1.6 6.1 6.1 0 0 1-1.9 1 7.6 7.6 0 0 1-2.4.4l-2.2-.2-1.8-.6-1.4-.9-1.1-1zm13.5-3.7h-1.8v-2.7h1.8v-3.7h3.5v3.7h2.9v2.7h-2.9v4.4a2.1 2.1 0 0 0 .3 1.3 1.2 1.2 0 0 0 1 .4l.9-.2.7-.4 1.4 2.1a5.6 5.6 0 0 1-3.6 1.3 5.1 5.1 0 0 1-2-.3 3.4 3.4 0 0 1-1.3-1 3.7 3.7 0 0 1-.7-1.5 7.9 7.9 0 0 1-.2-1.9zm9.9-2.8h3.3v1.4a5.2 5.2 0 0 1 1.2-1.1 3.3 3.3 0 0 1 2-.5h.8l.6.2-.6 3-1.2-.2a2.7 2.7 0 0 0-2 .7 2.8 2.8 0 0 0-.8 2.1v5.6h-3.5zm16.3 10.2a3.7 3.7 0 0 1-1.5 1 5.1 5.1 0 0 1-2 .4l-1.3-.2-1.2-.6a3.1 3.1 0 0 1-.9-1.1 3.4 3.4 0 0 1-.4-1.7 3.8 3.8 0 0 1 .4-1.8 3.7 3.7 0 0 1 1.1-1.3 5 5 0 0 1 1.6-.8l2.1-.3h2v-.2a1.4 1.4 0 0 0-.2-.7l-.5-.5-.7-.3h-.7a5.4 5.4 0 0 0-1.9.3l-1.3.6-1.4-2.1.8-.5 1.1-.5 1.4-.3h1.8a4.8 4.8 0 0 1 3.8 1.4 5.4 5.4 0 0 1 1.2 3.7v6.6h-3.2zm0-3.9H296a3.8 3.8 0 0 0-2 .4 1.3 1.3 0 0 0-.6 1.2q0 1.4 1.7 1.4h.8l.7-.4.5-.6a1.8 1.8 0 0 0 .2-.8zm7.2-3.5h-1.8v-2.7h1.8v-3.7h3.5v3.7h2.9v2.7h-2.9v4.4a2.1 2.1 0 0 0 .3 1.3 1.2 1.2 0 0 0 1 .4l.9-.2.7-.4 1.4 2.1a5.6 5.6 0 0 1-3.6 1.3 5.1 5.1 0 0 1-2-.3 3.4 3.4 0 0 1-1.3-1 3.7 3.7 0 0 1-.7-1.5 7.9 7.9 0 0 1-.2-1.9zm19.9 7.3l-.6.4-1 .5-1.5.5-1.9.2a7.2 7.2 0 0 1-2.6-.4 5.6 5.6 0 0 1-2-1.2 5.2 5.2 0 0 1-1.2-1.9 6.9 6.9 0 0 1-.4-2.5 6.6 6.6 0 0 1 .4-2.3 5.7 5.7 0 0 1 1.1-1.9 5.5 5.5 0 0 1 1.8-1.3 5.9 5.9 0 0 1 2.4-.5 5.6 5.6 0 0 1 2.4.5 5 5 0 0 1 1.7 1.3 5.8 5.8 0 0 1 1.1 2 9 9 0 0 1 .4 2.6v.6h-8a2.1 2.1 0 0 0 .8 1.6 3.1 3.1 0 0 0 2.1.7 5.2 5.2 0 0 0 2.2-.4l1.2-.7zm-3-5.6a2 2 0 0 0-.1-.7l-.4-.7-.7-.5-1-.2-1.1.2-.8.5-.5.7a1.9 1.9 0 0 0-.2.7zm7.6 8.2l1.4.6 1.7.2a2.6 2.6 0 0 0 1.8-.6 2.4 2.4 0 0 0 .7-1.9v-.8a4.2 4.2 0 0 1-2.9.9 5.5 5.5 0 0 1-2.1-.4 4.4 4.4 0 0 1-1.6-1.1 5 5 0 0 1-1-1.7 6.9 6.9 0 0 1 .1-4.6 5.6 5.6 0 0 1 1.3-1.9 5.8 5.8 0 0 1 2-1.2 7.7 7.7 0 0 1 2.7-.4l2.7.2 2.3.6v10.3a5.2 5.2 0 0 1-1.5 4.1 6.2 6.2 0 0 1-4.2 1.3 10.7 10.7 0 0 1-2.6-.3 6.6 6.6 0 0 1-2.1-.9zm5.6-9.8l-.7-.2h-.8l-1.3.3-.9.7a2.7 2.7 0 0 0-.6 1 3.9 3.9 0 0 0-.2 1.2 3 3 0 0 0 .6 1.9 2.1 2.1 0 0 0 1.7.7 2.4 2.4 0 0 0 1.6-.5 2.1 2.1 0 0 0 .6-1.6zm6.8 10.2l.6.4.8.2a1.3 1.3 0 0 0 .9-.3 3.4 3.4 0 0 0 .7-1.2l.3-.9-5.1-11.1h3.9l2.8 7.1 2.5-7.1h3.7l-4.5 11-.8 1.9a7.5 7.5 0 0 1-.9 1.7 4.4 4.4 0 0 1-1.3 1.2 3.8 3.8 0 0 1-2 .5l-1.7-.2-1.4-.7zM58.1 135.6h6a7 7 0 0 1 2.4.4 5.1 5.1 0 0 1 1.8 1.1 4.4 4.4 0 0 1 1.1 1.6 5.4 5.4 0 0 1 .3 1.9 5.3 5.3 0 0 1-.7 2.7 5 5 0 0 1-1.9 1.9l3.6 6.4h-4l-3-5.9h-2v5.9h-3.6zm5.8 7.2a2.2 2.2 0 0 0 1.6-3.7 2.1 2.1 0 0 0-1.6-.6h-2.3v4.2zm19.2 7.6l-.6.4-1 .5-1.5.5-1.9.2a7.2 7.2 0 0 1-2.6-.4 5.6 5.6 0 0 1-2-1.2 5.2 5.2 0 0 1-1.2-1.9 6.9 6.9 0 0 1-.4-2.5 6.6 6.6 0 0 1 .4-2.3 5.7 5.7 0 0 1 1.1-1.9 5.5 5.5 0 0 1 1.8-1.3 5.9 5.9 0 0 1 2.4-.5 5.6 5.6 0 0 1 2.4.5 5 5 0 0 1 1.7 1.3 5.8 5.8 0 0 1 1.1 2 9 9 0 0 1 .4 2.6v.6h-8a2.1 2.1 0 0 0 .8 1.6 3.1 3.1 0 0 0 2.1.7 5.2 5.2 0 0 0 2.2-.4l1.2-.7zm-3-5.6a2 2 0 0 0-.1-.7l-.4-.7-.7-.5-1-.2-1.1.2-.8.5-.5.7a1.9 1.9 0 0 0-.2.7zm7 3.3a4.4 4.4 0 0 0 1.5.8 5 5 0 0 0 1.7.3l1.3-.2a.7.7 0 0 0 .5-.7.8.8 0 0 0-.1-.4l-.4-.3-.8-.3-1.3-.4-1.3-.4-1.1-.7a3.2 3.2 0 0 1-.8-1 3.1 3.1 0 0 1 .1-2.8 3.5 3.5 0 0 1 1-1.1 4.7 4.7 0 0 1 1.5-.7l1.9-.3a8.8 8.8 0 0 1 2.5.3 7.2 7.2 0 0 1 2 .9l-1.5 2.3-1.3-.6a4.2 4.2 0 0 0-1.6-.3 2.2 2.2 0 0 0-1.2.2.7.7 0 0 0-.4.6q0 .6.7.8l2 .6a5.3 5.3 0 0 1 2.5 1.3 3.2 3.2 0 0 1 .8 2.2 3 3 0 0 1-.3 1.8 3.5 3.5 0 0 1-1.1 1.1 5.3 5.3 0 0 1-1.6.7l-1.8.2a9.8 9.8 0 0 1-2.9-.4 5.1 5.1 0 0 1-2.2-1.2zm21.6 2.3l-.6.4-1 .5-1.5.5-1.9.2a7.2 7.2 0 0 1-2.6-.4 5.6 5.6 0 0 1-2-1.2 5.2 5.2 0 0 1-1.2-1.9 6.9 6.9 0 0 1-.4-2.5 6.6 6.6 0 0 1 .4-2.3 5.7 5.7 0 0 1 1.1-1.9 5.5 5.5 0 0 1 1.8-1.3 5.9 5.9 0 0 1 2.4-.5 5.6 5.6 0 0 1 2.4.5 5 5 0 0 1 1.7 1.3 5.8 5.8 0 0 1 1.1 2 9 9 0 0 1 .4 2.6v.6h-8a2.1 2.1 0 0 0 .8 1.6 3.1 3.1 0 0 0 2.1.7 5.2 5.2 0 0 0 2.2-.4l1.2-.7zm-3-5.6a2 2 0 0 0-.1-.7l-.4-.7-.7-.5-1-.2-1.1.2-.8.5-.5.7a1.9 1.9 0 0 0-.2.7zm12.3 5.7a3.7 3.7 0 0 1-1.5 1 5.1 5.1 0 0 1-2 .4l-1.3-.2-1.2-.6a3.1 3.1 0 0 1-.9-1.1 3.4 3.4 0 0 1-.4-1.7 3.8 3.8 0 0 1 .4-1.8 3.7 3.7 0 0 1 1.1-1.3 5 5 0 0 1 1.6-.8l2.1-.3h2v-.2a1.4 1.4 0 0 0-.2-.7l-.5-.5-.7-.3h-.8a5.4 5.4 0 0 0-1.9.3l-1.3.6-1.4-2.1.8-.5 1.1-.5 1.4-.3h1.8a4.8 4.8 0 0 1 3.8 1.4 5.4 5.4 0 0 1 1.2 3.7v6.6H118zm0-3.9h-1.2a3.8 3.8 0 0 0-2 .4 1.3 1.3 0 0 0-.6 1.2q0 1.4 1.7 1.4h.8l.7-.4.5-.6a1.8 1.8 0 0 0 .2-.8zm6.5-6.3h3.3v1.4a5.2 5.2 0 0 1 1.2-1.1 3.3 3.3 0 0 1 2-.5h.8l.6.2-.6 3-1.2-.2a2.7 2.7 0 0 0-2 .7 2.8 2.8 0 0 0-.8 2.1v5.6h-3.5zm19.6 9.8a5.9 5.9 0 0 1-1.8 1.3 6.1 6.1 0 0 1-2.7.6 6.7 6.7 0 0 1-2.5-.4 5.5 5.5 0 0 1-1.9-1.2 5.7 5.7 0 0 1-1.2-1.9 6.4 6.4 0 0 1-.4-2.4 6 6 0 0 1 1.7-4.2 5.8 5.8 0 0 1 1.9-1.3 6.2 6.2 0 0 1 2.4-.5 6.5 6.5 0 0 1 2.7.5 5.7 5.7 0 0 1 1.9 1.3l-2.1 2.3-.9-.8a2.8 2.8 0 0 0-1.5-.3l-1.1.3-.8.7a2.8 2.8 0 0 0-.5.9 3.6 3.6 0 0 0-.2 1.1 3.4 3.4 0 0 0 .2 1.1 2.9 2.9 0 0 0 .5 1l.8.7 1.1.3a2.9 2.9 0 0 0 1.5-.3l1-.8zm2.2-14.5h3.4v5.8a3.5 3.5 0 0 1 1.5-1 5.2 5.2 0 0 1 1.8-.3 4.2 4.2 0 0 1 3.1 1.2 4.6 4.6 0 0 1 1.2 3.4v7h-3.4v-6.4a2.2 2.2 0 0 0-.5-1.5 1.7 1.7 0 0 0-1.3-.6l-1 .2-.7.5a2.2 2.2 0 0 0-.4.8 3.1 3.1 0 0 0-.1.9v6h-3.5z" style="isolation:isolate" fill="#3b3d40"/><path d="M825.2 229.9c-4 0-6.3-.7-8.2-2.4a7.6 7.6 0 0 1-2.5-5.7c0-.7.1-1.4.2-2.9s.6-6.7.6-11.1.1-8.6.1-13.7.1-10.2.1-13.5.1-6.1.1-8.7.1-5.1.1-8.5-.2-7.4-.4-11.5-.4-8.6-.4-12.1a7 7 0 0 1 14 0c0 3.2.2 7.4.4 11.5s.4 8.6.4 12.1-.1 6.1-.1 8.7-.1 5.1-.1 8.5-.1 8.6-.1 13.7-.1 10.2-.1 13.5-.1 5.6-.3 7.8l8.5-.9c4.5-.5 8.4-1 11.1-1a62 62 0 0 1 7.4.4 48.2 48.2 0 0 0 5.9.3l6.2-.2c1.8-.1 3.6-.2 7.1-.2l13-.2 13.6-.3a7 7 0 0 1 0 14l-13.2.2-13.4.3-6.2.2c-1.7.1-3.6.2-7.1.2a62 62 0 0 1-7.4-.4 48.2 48.2 0 0 0-5.9-.3c-1.9 0-5.7.4-9.5.9a135.4 135.4 0 0 1-13.9 1.3zm137.6-63.3a7 7 0 0 1-7-7c0-3.3 0-4.9-.1-6.6s-.1-3.5-.1-7-.1-4.7-.2-6.4-.2-3.6-.2-7.2-.2-8.4-.3-13.4-.3-10.3-.3-13.8.1-5.5.3-7.4.2-3.2.2-6.2a49.2 49.2 0 0 1 .6-6.9l-11.6.2-8.7.2-13.3.2-7.1-.2h-6.3l-13.3.2h-.1a71.5 71.5 0 0 1-7.3-.3 57.4 57.4 0 0 0-6.1-.3 7 7 0 0 1 0-14 71.6 71.6 0 0 1 7.3.3 57.2 57.2 0 0 0 6 .3l13.3-.2h.1l7 .2h6.3l13.3-.2h8.6c9.6-.2 16.2-.3 19.4.1a8 8 0 0 1 5.3 3.1c2.5 3.2 1.9 7.1 1.3 11.2a44.6 44.6 0 0 0-.6 6.3c0 3.6-.1 5.5-.3 7.3s-.2 3.2-.2 6.3.2 8.4.3 13.4.3 10.3.3 13.8.1 4.7.2 6.4.2 3.6.2 7.2 0 4.9.1 6.6.1 3.5.1 7a7 7 0 0 1-7.1 6.8z" fill="#f4606c"/><path d="M696.5 141.5c-.8-3.3-8.2 0-15.7 0s-7.5.3-15 .3-7.5 1-15 1-7.5-1-15-1-7.5-.4-15-.4-15.3-2.6-15.2 6.8.5 18.2.5 26.4-.5 8.2-.5 16.3-1.1 34.1 0 45.7c.7 7 13.9-11.8 18.5-16.8s4.8-6 9.9-11.5 5.7-4.9 10.9-10.5 15-15.2 20.6-20.3 9.4-9.4 15.1-14.3c7.4-6.4 8.9-6.6 15.1-10.6s2.7-3.6.8-11.1z" fill="#3649a3"/><path d="M696.5 59.4c-7.4-.9-8.2.3-15.7.3s-7.5-.4-15-.4-7.5.3-15 .3-7.5.8-15 .8-7.5-.9-15-.9-13.8-1.6-14 2.6c-.3 8.5-.2 5.2-.2 12.7s-.7 7.5-.7 15-.4 7.5-.4 15 .8 7.5.8 15-.2 9.3-.2 16.8 0 8.6-.2 13c-.4 7.1 5.2-1.1 10.2-6.1s5.2-8.1 10.2-13.1 4.2-5.8 9.2-10.8 5.5-4.5 10.5-9.5 4.5-5.4 9.5-10.4 5.8-4.2 10.8-9.2 4.4-5.6 9.4-10.6 6.1-5.5 12.2-9.1 17.3-10.3 8.6-11.4zm89.9 82.1c-7.2.3-23 0-30.5 0s-7.5-.4-15-.4h-15c-7.5 0-7.5 1.1-15 1.1s-8.9-5.2-14.4.4-.7 6.9-.7 14.5.7 7.6.7 15.2-1 7.6-1 15.3.5 7.6.5 15.3c0 9.3-3 34.8.3 36.3s5.2-4.1 10.2-9.5 4.4-6.1 9.4-11.5 4.8-5.7 9.8-11.1 5.4-5 10.4-10.5 4.8-5.6 9.8-11.1 5.6-4.8 10.6-10.3 3.9-6.6 8.9-12.1 28-21.9 21-21.6z" fill="#3649a3"/><path d="M785.9 59.8h-14.3c-7.1 0-7.1.8-14.2.8s-7.1-1.5-14.3-1.5-7.1-.3-14.3-.3h-16.5c-8.3 0-8.8.8-16.9.2-6.1-.4 1.2 6.7 1.2 12.7v12.2c0 6.1-.9 6.6-.9 13.1s-.5 6.6-.5 13.1.4 8.5.4 15.1-2.7 23.8-.1 24.8c5.8 2.4 5.2-1.8 9.6-6.2s4.6-7.1 9-11.5 3.8-5.1 8.2-9.5l10.7-10.4 10.6-10.7c5.3-5.3 6.1-4.6 11.4-9.9s4.5-6.1 9.9-11.4 28.3-20.7 21-20.6z" fill="#3649a3"/><path d="M664.1 152.6a7.4 7.4 0 0 1-1.2 1.3l-1.6 1.1-1.9.7-2.1.3a8.7 8.7 0 0 1-3.3-.6 7.7 7.7 0 0 1-2.6-1.7 7.8 7.8 0 0 1-1.7-2.6 9.6 9.6 0 0 1 0-6.7 7.9 7.9 0 0 1 4.3-4.5 8.4 8.4 0 0 1 3.4-.7 8.8 8.8 0 0 1 3.9.8 7.3 7.3 0 0 1 2.8 2.4l-2.5 2.4a5.9 5.9 0 0 0-1.7-1.6 4.4 4.4 0 0 0-2.4-.6 4.6 4.6 0 0 0-1.9.4 4.2 4.2 0 0 0-1.5 1.1 5 5 0 0 0-.9 1.6 6.1 6.1 0 0 0 0 3.9 4.7 4.7 0 0 0 .9 1.6 4.3 4.3 0 0 0 1.4 1.1 4.5 4.5 0 0 0 1.9.4l1.5-.2 1.1-.5.9-.7.7-.8zm2-2.6a6.2 6.2 0 0 1 .4-2.3 5.9 5.9 0 0 1 1.2-1.9 5.7 5.7 0 0 1 1.9-1.3 6.3 6.3 0 0 1 2.5-.5 6.2 6.2 0 0 1 2.4.5 5.7 5.7 0 0 1 1.9 1.3 5.9 5.9 0 0 1 1.2 1.9 6.4 6.4 0 0 1 0 4.7 5.8 5.8 0 0 1-3.1 3.2 6.1 6.1 0 0 1-2.4.5 6.2 6.2 0 0 1-2.5-.5 5.8 5.8 0 0 1-3.1-3.2 6.2 6.2 0 0 1-.4-2.4zm6 3l1.2-.3a2.5 2.5 0 0 0 .9-.7 2.9 2.9 0 0 0 .5-1 3.8 3.8 0 0 0 0-2.2 2.8 2.8 0 0 0-.5-1l-.9-.7-1.2-.3-1.2.3a2.4 2.4 0 0 0-.9.7 3.1 3.1 0 0 0-.5 1 3.6 3.6 0 0 0 0 2.2 3.2 3.2 0 0 0 .5 1 2.4 2.4 0 0 0 .9.7zm8.7-8.7h3.3v1.2a4 4 0 0 1 1.5-1.1 4.5 4.5 0 0 1 1.9-.4 4.1 4.1 0 0 1 3.1 1.2 4.7 4.7 0 0 1 1.1 3.4v7h-3.5v-6.5a2.2 2.2 0 0 0-.5-1.5 1.6 1.6 0 0 0-1.3-.6l-1 .2-.7.5a2.2 2.2 0 0 0-.4.8 3 3 0 0 0-.1.9v6h-3.4zm24.2 9.8a5.9 5.9 0 0 1-1.8 1.3 6.1 6.1 0 0 1-2.7.6 6.7 6.7 0 0 1-2.5-.4 5.5 5.5 0 0 1-1.9-1.2 5.7 5.7 0 0 1-1.2-1.9 6.4 6.4 0 0 1-.4-2.4 6 6 0 0 1 1.7-4.2 5.8 5.8 0 0 1 1.9-1.3 6.2 6.2 0 0 1 2.4-.5 6.5 6.5 0 0 1 2.7.5 5.7 5.7 0 0 1 1.9 1.3l-2.1 2.3-.9-.8a2.8 2.8 0 0 0-1.5-.3l-1.1.3-.8.7a2.8 2.8 0 0 0-.5.9 3.6 3.6 0 0 0-.2 1.1 3.4 3.4 0 0 0 .2 1.1 2.9 2.9 0 0 0 .5 1l.8.7 1.1.3a2.9 2.9 0 0 0 1.5-.3l1-.8zm12.4.3l-.6.4-1 .5-1.5.5-1.9.2a7.2 7.2 0 0 1-2.6-.4 5.6 5.6 0 0 1-2-1.2 5.2 5.2 0 0 1-1.2-1.9 6.9 6.9 0 0 1-.4-2.5 6.6 6.6 0 0 1 .4-2.3 5.7 5.7 0 0 1 1.1-1.9 5.5 5.5 0 0 1 1.8-1.3 5.9 5.9 0 0 1 2.4-.5 5.6 5.6 0 0 1 2.4.5 4.9 4.9 0 0 1 1.7 1.3 5.8 5.8 0 0 1 1.1 2 9 9 0 0 1 .4 2.6v.6h-8a2.1 2.1 0 0 0 .8 1.6 3.1 3.1 0 0 0 2.1.7 5.2 5.2 0 0 0 2.2-.4l1.2-.7zm-3-5.6a2 2 0 0 0-.1-.7l-.4-.7-.7-.5-1-.2-1.1.2-.8.5-.5.7a1.9 1.9 0 0 0-.2.7zm5.8-4.5h3.3v1.2a3.6 3.6 0 0 1 1.4-1.1 4.5 4.5 0 0 1 1.8-.4 4.7 4.7 0 0 1 2.2.5 4.6 4.6 0 0 1 1.6 1.3 5.6 5.6 0 0 1 .9 1.8 7.5 7.5 0 0 1 .3 2.1 6.4 6.4 0 0 1-.5 2.7 5.6 5.6 0 0 1-1.4 1.9 5.5 5.5 0 0 1-1.9 1.1 6.4 6.4 0 0 1-2.1.4h-1.3l-1-.3v4.9h-3.4zm3.4 8.3a3.6 3.6 0 0 0 2 .5 2.5 2.5 0 0 0 2-.9 3.4 3.4 0 0 0 .7-2.3 4.4 4.4 0 0 0-.1-1.1 2.8 2.8 0 0 0-.4-.9 2 2 0 0 0-.7-.6l-1.1-.2-1 .2-.7.6a2.6 2.6 0 0 0-.5.8 2.9 2.9 0 0 0-.2.9zm11.7-5.5h-1.8v-2.7h1.8v-3.7h3.5v3.7h2.9v2.7h-2.9v4.4a2.1 2.1 0 0 0 .3 1.3 1.2 1.2 0 0 0 1 .4l.9-.2.7-.4 1.4 2.1a5.6 5.6 0 0 1-3.6 1.3 5.1 5.1 0 0 1-2-.3 3.4 3.4 0 0 1-1.3-1 3.7 3.7 0 0 1-.7-1.5 7.9 7.9 0 0 1-.2-1.9z" style="isolation:isolate" fill="#fff"/><path fill="none" d="M0 0h1000v300H0z"/></svg>