<svg id="Layer_1" xmlns="http://www.w3.org/2000/svg" viewBox="0 0 74 50.5"><style>.st0{fill:#2e71f2}</style><title>Asset 2</title><path class="st0" d="M16.2 18.1c8.9-.1 16.2 7.2 16.3 16.1.1 8.9-7.2 16.2-16.1 16.3S.2 43.3.1 34.4V32C.1 16.2 11.5 2.7 27.1.1c2.4-.4 4.8 1.2 5.2 3.6.1.3.1.6.1.9v.2c0 2.3-1.7 4.2-3.9 4.5-4.7.7-9.1 2.9-12.5 6.3-.8.8-1.6 1.7-2.3 2.7l2.5-.2zm41.6 0c8.9-.1 16.2 7.2 16.3 16.1S66.9 50.4 58 50.5s-16.2-7.2-16.3-16.1V32c0-15.8 11.4-29.3 27-31.9 2.4-.4 4.8 1.2 5.2 3.6.1.3.1.6.1.9v.2c-.1 2.2-1.8 4.1-4 4.4-4.7.8-9 3-12.4 6.4-.8.8-1.6 1.7-2.3 2.7l2.5-.2z"/></svg>