<svg xmlns="http://www.w3.org/2000/svg" viewBox="0 0 800 135"><title>Asset 1</title><path d="M97.3 107.2h-8.9L68.3 54.9a6.1 6.1 0 0 0 3.7-5.7 6.4 6.4 0 0 0-6.5-6.3 6.3 6.3 0 0 0-6.3 6.5 5.9 5.9 0 0 0 3.7 5.6l-20.1 52.2H34a1.9 1.9 0 0 0 0 3.7h63.3a1.9 1.9 0 0 0 0-3.7zM67.7 88.5V63.7L75 82.8zm8.5-2.2l6.6 17.3-14.2-11.2zM64 88.5l-7.3-5.8L64 63.6zm-1.5 3.9l-14.1 11.1L55 86.3zm1.5 3.8v11H49zm3.7 0l14.3 11H67.7zm-2.2-49.5a2.8 2.8 0 0 1 2.7 2.6 2.9 2.9 0 0 1-2.7 2.7 2.7 2.7 0 0 1-2.6-2.7 2.6 2.6 0 0 1 2.6-2.6zM44.7 64.5a2.1 2.1 0 0 0 1.1.4 1.7 1.7 0 0 0 1.5-.7 1.9 1.9 0 0 0-.4-2.6 15.1 15.1 0 0 1-6.2-12.3A15.6 15.6 0 0 1 47 36.9a1.9 1.9 0 1 0-2.2-3A19.2 19.2 0 0 0 37 49.2a19.1 19.1 0 0 0 7.7 15.3z" fill="#fff"/><path d="M39.1 73.9l1 .4a1.6 1.6 0 0 0 1.5-.9 1.8 1.8 0 0 0-.5-2.6 26.3 26.3 0 0 1-.1-43.3 1.9 1.9 0 0 0-2.1-3.1A30.4 30.4 0 0 0 26 49.2a30 30 0 0 0 13.1 24.7zm45.2-37.1a15.2 15.2 0 0 1 6.3 12.4 15.4 15.4 0 0 1-6.2 12.3 1.8 1.8 0 0 0-.4 2.6 1.7 1.7 0 0 0 1.5.7 2.1 2.1 0 0 0 1.1-.4A19.2 19.2 0 0 0 94.4 49a18.9 18.9 0 0 0-7.8-15.4 1.9 1.9 0 0 0-2.6.4 1.8 1.8 0 0 0 .3 2.8z" fill="#fff"/><path d="M90.1 27.6a26.3 26.3 0 0 1-.1 43.3 1.8 1.8 0 0 0-.5 2.6 2 2 0 0 0 1.5.9 1.4 1.4 0 0 0 1-.4 29.9 29.9 0 0 0 13-24.7 30.3 30.3 0 0 0-12.9-24.6 1.8 1.8 0 0 0-2.6.5 2.1 2.1 0 0 0 .6 2.4zm477.3 5.1a1.8 1.8 0 0 0-2.6 0L516 80.4a19.6 19.6 0 0 0-7.1-6.5l22.7-27.3a1.8 1.8 0 0 0-2.8-2.4l-23.6 28.2a19.5 19.5 0 0 0-11.9.1l33.3-45.7a1.9 1.9 0 1 0-3-2.2L484 79v.2a19.3 19.3 0 0 0-4.1 12 19.9 19.9 0 0 0 19.9 19.9 19.6 19.6 0 0 0 12.6-4.6l49.1-40.4a1.8 1.8 0 1 0-2.4-2.8l-40.5 33.1a23 23 0 0 0 .7-5.1 19.5 19.5 0 0 0-1.5-7.6l49.7-48.4a1.9 1.9 0 0 0-.1-2.6zm-51.8 58.6a16.3 16.3 0 1 1-2.4-8.3l-8.7 8.4a6.1 6.1 0 0 0-3.2-.9 6.5 6.5 0 0 0-6.5 6.5 6.4 6.4 0 0 0 6.5 6.5 6.3 6.3 0 0 0 6.3-6.5 6.9 6.9 0 0 0-.6-2.7l7.8-7.6a15 15 0 0 1 .8 4.6zm-11.7 5.6a2.8 2.8 0 0 1-2.6 2.7 2.9 2.9 0 0 1-2.7-2.7 2.8 2.8 0 0 1 2.7-2.7 2.7 2.7 0 0 1 2.6 2.7zM179.7 54.8h-9.9v-5.6c0-1-1.5-1.9-2.6-1.9h-2.4V26.2a1.9 1.9 0 0 0-3.7 0v21.1h-2.7c-1 0-1 .7-1 1.9v5.6c-5 0-7.4 2.8-7.4 7.2v18.7a7.1 7.1 0 0 0 3.7 6.7v21.3c0 1 .5 1.9 1.5 1.9h26c1 0 2.2-.9 2.2-1.9V87.4a7.1 7.1 0 0 0 3.7-6.7V61.9c0-4.3-3.2-7.1-7.4-7.1zM161.1 51h5v2.5h-5zm22.3 29.5a3.6 3.6 0 0 1-2.4 3.7 1.9 1.9 0 0 0-1.3 1.7v20.8h-22.3V86.1a1.7 1.7 0 0 0-1.3-1.7 3.5 3.5 0 0 1-2.4-3.7V61.9c0-2.2.7-3.3 2.8-3.3h23.2c2.7 0 3.7 1.9 3.7 3.3z" fill="#fff"/><path d="M175.6 62.2h-14.9a1.9 1.9 0 0 0 0 3.7h14.9a1.9 1.9 0 1 0 0-3.7zm0 7.4h-14.9a1.9 1.9 0 0 0 0 3.7h14.9a1.9 1.9 0 1 0 0-3.7zm0 7.5h-14.9a1.9 1.9 0 0 0 0 3.7h14.9a1.9 1.9 0 1 0 0-3.7zm45-22.3h-9.9v-5.6c0-1-1.5-1.9-2.6-1.9h-2.4V26.2a1.9 1.9 0 0 0-3.7 0v21.1h-2.7c-1 0-1 .7-1 1.9v5.6c-5 0-7.4 2.8-7.4 7.2v18.7a7.1 7.1 0 0 0 3.7 6.7v21.3c0 1 .5 1.9 1.5 1.9h26c1 0 2.2-.9 2.2-1.9V87.4a7.1 7.1 0 0 0 3.7-6.7V61.9c.1-4.3-3.2-7.1-7.4-7.1zM202 51h5v2.5h-5zm22.3 29.5a3.6 3.6 0 0 1-2.4 3.7 1.9 1.9 0 0 0-1.3 1.7v20.8h-22.3V86.1a1.7 1.7 0 0 0-1.3-1.7 3.5 3.5 0 0 1-2.4-3.7V61.9c0-2.2.7-3.3 2.8-3.3h23.2c2.7 0 3.7 1.9 3.7 3.3z" fill="#fff"/><path d="M216.5 62.2h-14.9a1.9 1.9 0 0 0 0 3.7h14.9a1.9 1.9 0 1 0 0-3.7zm0 7.4h-14.9a1.9 1.9 0 0 0 0 3.7h14.9a1.9 1.9 0 1 0 0-3.7zm0 7.5h-14.9a1.9 1.9 0 0 0 0 3.7h14.9a1.9 1.9 0 1 0 0-3.7zM704.7 104a11.1 11.1 0 0 1 6.5 2.2l2-2a13.2 13.2 0 0 0-8.4-3 13.4 13.4 0 0 0-8.4 3l2 2a10.6 10.6 0 0 1 6.3-2.2zm52.4 0a11.1 11.1 0 0 0-6.5 2.2l-2-2a13.2 13.2 0 0 1 8.4-3 13.4 13.4 0 0 1 8.4 3l-2 2a10.6 10.6 0 0 0-6.3-2.2zm-34.3-60.3l1.9 2a10.1 10.1 0 0 1 12.6 0l1.9-2a12.7 12.7 0 0 0-16.4 0z" fill="#fff"/><path d="M743.5 39.4a18.7 18.7 0 0 0-12.5-4.9 19 19 0 0 0-12.5 4.8l1.9 2a16.1 16.1 0 0 1 21.1 0z" fill="#fff"/><path d="M730.9 31.6a21.6 21.6 0 0 1 14.6 5.7l1.9-2a24.3 24.3 0 0 0-33 0l1.9 2a21.6 21.6 0 0 1 14.6-5.7zM692 99.9l2 2a16.8 16.8 0 0 1 10.8-4 16.5 16.5 0 0 1 10.8 4l2-2a19.7 19.7 0 0 0-12.8-4.9 19.2 19.2 0 0 0-12.8 4.9z" fill="#fff"/><path d="M687.9 95.8l2 2a22.5 22.5 0 0 1 14.9-5.7 21.8 21.8 0 0 1 14.9 5.7l2-2a25.5 25.5 0 0 0-16.9-6.5 24.6 24.6 0 0 0-16.9 6.5zm56.4 4.1l2 2a16.8 16.8 0 0 1 10.8-4 16.5 16.5 0 0 1 10.8 4l2-2a19.7 19.7 0 0 0-12.8-4.9 19.2 19.2 0 0 0-12.8 4.9z" fill="#fff"/><path d="M757.1 89.3a25.3 25.3 0 0 0-16.9 6.5l2 2a22.5 22.5 0 0 1 14.9-5.7 21.8 21.8 0 0 1 14.9 5.7l2-2a25.1 25.1 0 0 0-16.9-6.5zM705 87.2a1.9 1.9 0 0 0 1.9-1.9V70.5h48.4v14.9a1.9 1.9 0 1 0 3.7 0V68.6a1.9 1.9 0 0 0-1.9-1.9h-24.2V50.6a1.9 1.9 0 0 0-3.7 0v16.2H705a1.9 1.9 0 0 0-1.9 1.9v16.7a1.9 1.9 0 0 0 1.9 1.8zM639.4 51h-5.2V26a2.3 2.3 0 0 1 2.3-2.3h.5a2.3 2.3 0 0 1 2.3 2.3zm-10.1 14h-6.6v-4.7A2.3 2.3 0 0 1 625 58h2a2.3 2.3 0 0 1 2.3 2.3zm-9.1 0h-5.8v-2.5a2.3 2.3 0 0 1 2.3-2.3h1.2a2.3 2.3 0 0 1 2.3 2.3zm20.9.2h-8.7v-9.9a2.3 2.3 0 0 1 2.3-2.3h4.1a2.3 2.3 0 0 1 2.3 2.3z" fill="#fff"/><path d="M640.6 63.1h-25.3a2.3 2.3 0 0 0-2.3 2.3v16.5a18.6 18.6 0 0 0 29.9 0V65.5a2.3 2.3 0 0 0-2.3-2.4zm-5.2 18.4h-15a1.2 1.2 0 0 1 0-2.3h15a1.2 1.2 0 0 1 1.2 1.2 1.1 1.1 0 0 1-1.1 1.1zm0-5.7h-15a1.2 1.2 0 0 1 0-2.3h15a1.2 1.2 0 0 1 0 2.3zm0-5.7h-15a1.2 1.2 0 0 1 0-2.3h15a1.2 1.2 0 0 1 1.2 1.2 1.1 1.1 0 0 1-1.1 1.1z" fill="#fff"/><path d="M627.9 91.8a20.9 20.9 0 0 1-15-6.3V109a2.3 2.3 0 0 0 2.3 2.3h25.3a2.3 2.3 0 0 0 2.3-2.3V85.5a20.9 20.9 0 0 1-14.9 6.3zM332.8 78.2a1.9 1.9 0 0 1-1.9-1.9V60.1a24.3 24.3 0 1 0-48.5 0v16.3a1.9 1.9 0 1 1-3.7 0V60.1a28 28 0 1 1 56 0v16.3a1.9 1.9 0 0 1-1.9 1.8z" fill="#fff"/><path d="M284.5 87.8a11.4 11.4 0 1 1 0-22.9zm44.4 0a11.4 11.4 0 1 0 0-22.9zm-40.4 1.8a2.1 2.1 0 0 1-2.1-2.1V65.2a2.1 2.1 0 0 1 2.1-2.1 2.1 2.1 0 0 1 2.1 2.1v22.3a2.1 2.1 0 0 1-2.1 2.1zm20 13.3H305a5.5 5.5 0 1 1 0-10.9h3.5a5.5 5.5 0 0 1 5.5 5.5 5.5 5.5 0 0 1-5.5 5.4zm0-7.2H305a1.7 1.7 0 1 0 0 3.4h3.5a1.7 1.7 0 0 0 1.7-1.7 1.8 1.8 0 0 0-1.8-1.6zm16.3-6.1a2.1 2.1 0 0 0 2.1-2.1V65.2a2.1 2.1 0 0 0-2.1-2.1 2.1 2.1 0 0 0-2.1 2.1v22.3a2.1 2.1 0 0 0 2.1 2.1z" fill="#fff"/><path d="M326.1 99.4h-13.3a1.9 1.9 0 0 1 0-3.7H326c2.7 0 4.9-2.7 4.9-6V77.1a1.9 1.9 0 0 1 3.8 0v12.5c0 5.4-3.9 9.8-8.6 9.8zm83.6 7.6h.7a3.1 3.1 0 0 0 3.1-3.1V68.1a3.1 3.1 0 0 0-3.1-3.1h-.7a3.1 3.1 0 0 0-3.1 3.1v35.8a3.1 3.1 0 0 0 3.1 3.1z" fill="#fff"/><path d="M410.1 74.3a1.9 1.9 0 0 1-1.9-1.9V44.3a1.9 1.9 0 0 1 3.8 0v28.1a1.9 1.9 0 0 1-1.9 1.9zm-17-13.9a1.9 1.9 0 0 1-1.3-.6 22.1 22.1 0 0 1 .1-31.2 1.9 1.9 0 1 1 2.7 2.7 18.4 18.4 0 0 0-.1 26 1.9 1.9 0 0 1-1.3 3.2z" fill="#fff"/><path d="M398.3 55.3a1.9 1.9 0 0 1-1.3-.5 14.9 14.9 0 0 1-4.3-10.4 14.7 14.7 0 0 1 4.3-10.6 1.9 1.9 0 1 1 2.7 2.7 10.9 10.9 0 0 0-3.2 7.8 11.1 11.1 0 0 0 3.2 7.8 1.9 1.9 0 0 1-1.3 3.2z" fill="#fff"/><path d="M403.2 50.4a1.9 1.9 0 0 1-1.3-.5 7.9 7.9 0 0 1-2.3-5.6 7.8 7.8 0 0 1 2.3-5.6 1.9 1.9 0 1 1 2.6 2.7 4 4 0 0 0-1.2 2.9 4.2 4.2 0 0 0 1.2 2.9 1.9 1.9 0 0 1-1.3 3.2zm23.8 10a1.9 1.9 0 0 1-1.3-3.2 18.4 18.4 0 0 0-.1-26 1.9 1.9 0 1 1 2.7-2.7 22.1 22.1 0 0 1 .1 31.2 1.9 1.9 0 0 1-1.4.7z" fill="#fff"/><path d="M421.8 55.3a1.9 1.9 0 0 1-1.3-3.2 11.1 11.1 0 0 0 3.2-7.8 10.9 10.9 0 0 0-3.2-7.8 1.9 1.9 0 1 1 2.7-2.7 14.7 14.7 0 0 1 4.3 10.4 14.9 14.9 0 0 1-4.3 10.4 1.9 1.9 0 0 1-1.4.7z" fill="#fff"/><path d="M416.9 50.4a1.9 1.9 0 0 1-1.3-3.2 4.2 4.2 0 0 0 1.2-2.9 4 4 0 0 0-1.2-2.9 1.9 1.9 0 0 1 2.6-2.7 7.8 7.8 0 0 1 2.3 5.6 7.9 7.9 0 0 1-2.3 5.6 1.9 1.9 0 0 1-1.3.5z" fill="#fff"/><path fill="none" d="M0 0h800v135H0z"/></svg>