<svg xmlns="http://www.w3.org/2000/svg" viewBox="0 0 214 58"><title>Asset 4</title><rect width="214" height="58" style="fill:none"/><circle cx="209.6" cy="52.9" r="3.4" style="fill:#2e71f2"/><path d="M140.4,10.2c-1.7,6.2-2.1,7.7-3.8,15.6-2.1,9.8-6.5,22.6.9,26.4S151.7,46,151.7,46" style="fill:none;stroke:#2e71f2;stroke-linecap:round;stroke-miterlimit:10;stroke-width:5px"/><path d="M68.3,32.7c4.3,2.5,11.8,2.2,17.8-2.7,10.3-8.4,17-24.8,13.4-26.3S87.1,12.8,83,26.9c-2.8,9.8-3.2,24.2,4.9,25,2.8.3,6.6-1,10.9-5" style="fill:none;stroke:#2e71f2;stroke-linecap:round;stroke-miterlimit:10;stroke-width:5px"/><path d="M160.7,30.8a11.8,11.8,0,0,0-9.2,11.4c-.2,6,3.7,10.9,9.4,11.1,7.5.3,12.3-7.5,10.6-14.9S164.6,30,160.7,30.8Z" style="fill:none;stroke:#2e71f2;stroke-linecap:round;stroke-miterlimit:10;stroke-width:5px"/><path d="M60.7,30.8a11.8,11.8,0,0,0-9.2,11.4c-.2,6,3.7,10.9,9.4,11.1,7.5.3,12.3-7.5,10.6-14.9S64.5,30,60.7,30.8Z" style="fill:none;stroke:#2e71f2;stroke-linecap:round;stroke-miterlimit:10;stroke-width:5px"/><path d="M168.5,32.6c6,3.1,11.8,1.2,15.6-1.5" style="fill:none;stroke:#2e71f2;stroke-linecap:round;stroke-miterlimit:10;stroke-width:5px"/><path d="M106,30.8c-4.3,1.5-7.1,5.6-7.6,11.3s2.6,11.2,8.9,11.1,11.2-6.5,10.1-14.8C116.6,31.6,110.6,29.2,106,30.8Z" style="fill:none;stroke:#2e71f2;stroke-linecap:round;stroke-miterlimit:10;stroke-width:5px"/><path d="M3.2,44.7c12.3-5.5,25.4-13.1,34-22.8s7.8-17,4.4-18.2S33.4,7.9,30,16.3s-6.6,17.9-7,25.5,5.5,11.8,9.5,11.3,7.8-3.9,9.4-9.1S42,33.1,38,30.8c-2.3-1.3-7-3.7-15.7,4.1" style="fill:none;stroke:#2e71f2;stroke-linecap:round;stroke-miterlimit:10;stroke-width:5px"/><path d="M32.5,53.1c3.3,0,13.6-3.4,19-8.6" style="fill:none;stroke:#2e71f2;stroke-linecap:round;stroke-miterlimit:10;stroke-width:5px"/><path d="M120.1,30.4a129.4,129.4,0,0,0-2.8,15.4c-.4,4.4,1.9,7.3,4.9,7.4s8.3-2.7,11.7-5" style="fill:none;stroke:#2e71f2;stroke-linecap:round;stroke-miterlimit:10;stroke-width:5px"/><line x1="128.7" y1="30.4" x2="145.3" y2="30.4" style="fill:none;stroke:#2e71f2;stroke-linecap:round;stroke-miterlimit:10;stroke-width:5px"/><path d="M184.1,31c-.2,6.6,2.4,22.2,7.3,22.2s11.2-12.6,14.3-21.7" style="fill:none;stroke:#2e71f2;stroke-linecap:round;stroke-miterlimit:10;stroke-width:5px"/></svg>