<svg xmlns="http://www.w3.org/2000/svg" viewBox="0 0 340 340"><title>Asset 2</title><rect width="340" height="340" style="fill:none"/><path d="M154.4,258.4a20.5,20.5,0,0,0-7.3.4l-3.3.8-1.6.4-1.8.6a46.4,46.4,0,0,0-6.2,3.3l-5.5,3.4-.8.4-.9-1.1c-1.3-1.6-2.6-3.3-3.8-5.1l-3.6-5.4c-1.1-1.8-2.2-3.7-3.3-5.6-2.1-3.8-4.3-7.6-6.1-11.5l-.6-1.4-.2-.6v-.2l.2-.6.5-1.5c.7-2,1.5-4.1,2.3-6.1l2.5-6.1,1.3-2.9a19.5,19.5,0,0,1,1.3-2.6,6,6,0,0,1,1.6-1.7,17.9,17.9,0,0,1,2.5-1.4,15.9,15.9,0,0,1,2.7-1.1l3.2-.8a2,2,0,0,0-.8-3.9h0l-3.3.4a19.3,19.3,0,0,0-3.6,1.1,20.4,20.4,0,0,0-3.3,1.7,10.7,10.7,0,0,0-3,2.9,23.9,23.9,0,0,0-1.8,3.2l-1.4,3.1-2.5,6.2c-.8,2.1-1.6,4.1-2.4,6.2l-.6,1.6-.3.9-.2.7a3.5,3.5,0,0,0,0,.7,2.2,2.2,0,0,0,0,.3v.2a7.8,7.8,0,0,0,.3,1.2l.3.9.7,1.6c1.9,4.2,4,8,6.1,12,1.1,2,2.1,3.9,3.3,5.8l3.6,5.7c1.3,1.9,2.5,3.7,4,5.5l1.2,1.4.7.7a6.1,6.1,0,0,0,1.2.9l.7.3,1,.2h1.2l1.3-.5,1.7-.9,5.7-3.6a43.7,43.7,0,0,1,5.4-3l1.3-.5,1.5-.5,3.1-1a34.4,34.4,0,0,1,5.7-1.5h.2a2,2,0,0,0,.1-4Z" style="fill:#fff"/><path d="M36.2,332.7c-.4-2.6-.7-5.3-.9-8a59.1,59.1,0,0,1,0-8.2c.2-2.7.6-5.4,1-8.1s.9-5.2,1.4-7.9c1-5.2,2.1-10.4,3.3-15.6.6-2.6,1.3-5.2,2.1-7.8a54.1,54.1,0,0,1,2.9-7.9,14.5,14.5,0,0,1,1.2-2.1l1.3-1.7c.9-1.1,1.9-2.1,2.8-3.1a78.3,78.3,0,0,1,6.1-5.5,101.3,101.3,0,0,1,13.4-9.2c4.6-2.6,9-5.4,13.5-8.1l6.9-4.1,3.6-1.9a28.7,28.7,0,0,1,3.9-1.8,2.1,2.1,0,0,1,1.5,4h-.1a31.4,31.4,0,0,0-3.2,1.7l-3.3,2L87,243.8c-4.4,2.9-8.9,5.8-13.5,8.5A112.4,112.4,0,0,0,60.8,261c-2,1.6-4,3.3-5.8,5s-1.8,1.8-2.5,2.7l-1.1,1.4-.8,1.4a45.6,45.6,0,0,0-2.6,7c-.7,2.5-1.4,5-2,7.5-1.3,5.1-2.3,10.2-3.4,15.4-.5,2.6-1,5.2-1.5,7.8s-.8,5.1-1.1,7.6c-.5,5.1-.1,10.1.1,15.5a2,2,0,0,1-3.9.4Z" style="fill:#fff"/><path d="M215.1,218.6a2.4,2.4,0,0,0-3.4.3l-2.8,3.4c-1.1-4.4-1.9-13.8-2.2-20.2h-.1a51.4,51.4,0,0,1-4.9,4.1,52.3,52.3,0,0,1-5.4,3.4,42.6,42.6,0,0,1-5.9,2.6,38,38,0,0,1-6.3,1.5,74.1,74.1,0,0,1-12.6.9,76.5,76.5,0,0,1-12.5-1.1,52.8,52.8,0,0,1-12.3-3.6,45.6,45.6,0,0,1-10.7-7.1l-2.6-2.4c.2,10.2-.2,23.6-1,30.2l-1.7-1.3-1.4-1.1-.6-.5-.5-.4-.3-.3a2.4,2.4,0,0,0-3.2,3.6l.9.8.7.6,1.5,1.1,2.9,2.2,5.9,4.3c4,2.8,7.8,5.6,12,8.3l1.6,1,1.5.9,3.1,1.8,6.2,3.7c4.2,2.4,8.3,4.8,12.8,7l1.8.8,1,.4.7.2h1.9l.4-.2.7-.3,1-.7,1.6-1.3c1.9-1.7,3.6-3.5,5.3-5.2l4.9-5.4,2.4-2.7,1.2-1.3,1.2-1.4c3.2-3.8,6-7.8,8.8-11.7s5.6-7.9,8.5-11.4h0A2.4,2.4,0,0,0,215.1,218.6Z" style="fill:#fff"/><path d="M219.6,126.5a7,7,0,0,0-2.2-5,12.9,12.9,0,0,0-2.5-1.8,17.8,17.8,0,0,0-2.9-1.3,26.7,26.7,0,0,0-6.6-.8,65.9,65.9,0,0,0-7,.2l-3.5.4-1.7.3-1.4.4a10.9,10.9,0,0,0-4.8,3.4,9.3,9.3,0,0,0-2.2,5.3v.8c0,.3,0,.6,0,.8s0,1.1.1,1.6a14.8,14.8,0,0,0,3.7,8.6l.5.6.5.5,1.1.8a11.9,11.9,0,0,0,2.7,1.2,30,30,0,0,0,6.6,1.1l7.1.2a18.6,18.6,0,0,0,6.3-1,9.9,9.9,0,0,0,2.5-1.4l1-.9.8-1.1a17.4,17.4,0,0,0,1.9-6A31.5,31.5,0,0,0,219.6,126.5Z" style="fill:#fff"/><path d="M157.2,126.4v-.8a9.2,9.2,0,0,0-2-5.3,8.8,8.8,0,0,0-4.9-2.8,47.4,47.4,0,0,0-6.8-.7h-7.1a39.9,39.9,0,0,0-6.8.7,10.4,10.4,0,0,0-5.2,2.8,8.9,8.9,0,0,0-2.2,5.3,33.3,33.3,0,0,0-.1,6.8,10,10,0,0,0,2,5.5,10.7,10.7,0,0,0,5.1,3,28.8,28.8,0,0,0,6.7,1.1h7a36.3,36.3,0,0,0,6.8-1.1,15,15,0,0,0,2.9-1.1l.6-.4.5-.4.2-.2.3-.3.5-.6a11.3,11.3,0,0,0,2.3-5.6,27.3,27.3,0,0,0,.3-3.3c0-.6,0-1.2,0-1.7Z" style="fill:#fff"/><path d="M223.1,101.6a2.4,2.4,0,0,0-1.6-1.2c-4.8-1-5.6-5.9-5.6-6.1a2.4,2.4,0,0,0-2.2-2c-.1,0-10.5-.8-24.8-8.5a2.3,2.3,0,0,0-1.3-.3c-38.1,3.4-46-1-59.4-5.4a2.5,2.5,0,0,0-2.1.3,2.4,2.4,0,0,0-1.1,1.8c0,.1-1.9,10.6-4.4,20.5L114,127.6H117a36.1,36.1,0,0,1,1.6-6.7,12.6,12.6,0,0,1,1.5-2.7,13.3,13.3,0,0,1,1.7-1.8h0a14.1,14.1,0,0,1,2.7-1.8,17.7,17.7,0,0,1,3.9-1.5,29.5,29.5,0,0,1,3.9-.7l3.8-.3c2.5-.1,5-.1,7.5,0a42.7,42.7,0,0,1,7.7.8,13.5,13.5,0,0,1,7.5,4.5,14.2,14.2,0,0,1,3.1,8.1v1.3l1.4-1,2.9-1.7a15.6,15.6,0,0,1,3.5-1.3l1-.2h2.6a16.3,16.3,0,0,1,3.7.3,11.4,11.4,0,0,1,3.5,1.3,14.5,14.5,0,0,1,2.5-4.5,15.3,15.3,0,0,1,7-4.8l2.1-.5,1.9-.3,3.8-.4a70.5,70.5,0,0,1,7.5-.1,33.7,33.7,0,0,1,7.8,1.1,21.5,21.5,0,0,1,3.7,1.7,17.2,17.2,0,0,1,3.4,2.4,10.7,10.7,0,0,1,2.6,3.7,13.7,13.7,0,0,1,1,3.8l6.7-.2c-1.5-4.3-2.7-9.1-3.8-13.4S224.4,104,223.1,101.6Z" style="fill:#fff"/><path d="M326.3,304.2c-.2-1.6-.5-3-.8-4.4s-.7-2.8-1-4.2-1.5-5.6-2.3-8.3c-1.7-5.5-3.3-11-5.3-16.5a65.7,65.7,0,0,1-2.2-8c-.3-1.4-.7-2.8-1.1-4.3a26.6,26.6,0,0,0-1.6-4.5l-.7-1.2-.9-1.2-1.8-1.8a43.2,43.2,0,0,0-3.6-2.8c-2.4-1.7-4.9-3.3-7.5-4.7s-5.1-2.9-7.8-4.2l-7.8-3.6c-5.3-2.4-10.5-4.7-16-6.8l-2.2-.7-2.4-.6-4.5-.6-8.6-.8-8.6-.7-4.3-.4-3.2-.4v-1.1c0-.9,0-1.9,0-2.8s0-1-.1-1.5a7.1,7.1,0,0,0-.5-2,9.5,9.5,0,0,0-2-3,18.6,18.6,0,0,0-2.3-2.1,28.7,28.7,0,0,0-6.3-3.6l1.1-1.2a10.5,10.5,0,0,0,2-6.3v-.3c3.9-.5,6.7-2.2,8.3-5s1.3-8.4.9-11.4c-.1-.6-.2-1.1-.2-1.5v-1.3h.2c3.4,1.5,6.9.8,9-1.7s2.1-6.9-.5-10.6a28.1,28.1,0,0,1-4.8-15.5l.9-1.3a27,27,0,0,0,2.9-6.6c6.9,2.2,14.3.9,16.9-1.2a9,9,0,0,0,3.2-6.4c.3-4-1.5-8.4-5-12.3l-2.4-2.9a8.7,8.7,0,0,0,8.5-2.6,8.6,8.6,0,0,0,2-7.3c-.7-4.6-4-9.1-8.9-12-1.7-1-2.2-2.6-3.2-6.2a50.8,50.8,0,0,0-6.4-14.7,13.1,13.1,0,0,0,.7-3.8,27.4,27.4,0,0,0-.2-4.2c-.3-2.7-.9-5.2-1.3-7.7s-.4-2.4-.6-3.6-.1-1.2-.2-1.8-.1-1.4-.2-2.1a27.3,27.3,0,0,0-.9-4.2,25.7,25.7,0,0,0-1.5-4,22.8,22.8,0,0,0-5.1-7l-1.7-1.4-1-.7-1-.6a30.9,30.9,0,0,0-3.8-1.7L228,36l-.5-1.4-.6-1.9-1.1-4c-.7-2.7-1.5-5.4-2.3-8.2l-.6-2.1a22.6,22.6,0,0,0-.8-2.2,16.6,16.6,0,0,0-2.6-4.2,19.9,19.9,0,0,0-7.8-5.6,15.7,15.7,0,0,0-4.9-1.1,16.2,16.2,0,0,0-5,.7c-2.9.9-5.6,2-8.1,2.9L190,10l-1.7.3h-1.8l-8.2-.7c-5.5-.6-11.1-1.4-16.6-2.3l-4.1-.7-2-.4-1.1-.2-1.2-.2a17.9,17.9,0,0,0-9.8,1.6,22.9,22.9,0,0,0-7.6,5.8l-1.5,1.9-1.2,1.8-2.4,3.5c-1.6,2.4-3.1,4.8-4.5,7.4a36.3,36.3,0,0,0-2.9,7l-.7.3a53.2,53.2,0,0,0-7.4,3.9l-1.9,1.4-1.6,1.7a20.9,20.9,0,0,0-2.6,3.8c-2.9,5.3-3.5,10.9-4.7,15.7l-.2.9-.3.9c-.2.7-.4,1.4-.5,2.2a23.1,23.1,0,0,0-.4,4.5,15.1,15.1,0,0,0,.7,4.5,10.9,10.9,0,0,0,1,2.2l.3.4c-1.9,1.6-3.9,3.2-6,4.8-7.1,5.5-13.9,10.7-12.4,16.8a6.4,6.4,0,0,0,4.6,4.7c-5.4,4.3-12.1,10.7-12,15.3a6.2,6.2,0,0,0,2.3,5c2.6,2,6.6,1.6,10.5.8-2,2.4-3.9,4.4-5.7,6.4-5.1,5.4-9.1,9.6-6.8,15.1a6.8,6.8,0,0,0,4.8,4.1,10.6,10.6,0,0,0,2.7.3A27.9,27.9,0,0,0,98,147.3a15,15,0,0,0,6.2,8.9c-.7,3.1-3,5.5-5.2,7.9s-4,4.2-4.6,6.7a7.1,7.1,0,0,0,2.3,7.4c2.5,1.9,6,2.2,9.5.7-1.3,5-1.2,8.8.1,11.4a10.4,10.4,0,0,0,7.2,5.7l.9.3c1.5,4.7,3.4,8.3,10.8,9.2h.3a2.4,2.4,0,0,0,.3-4.8c-4.9-.6-5.7-2.3-6.9-6.2-.7-2.2-2.7-2.8-4.1-3.2a5.7,5.7,0,0,1-4.2-3.3c-.3-.6-1.2-3.3.9-10.2.4-1.2,1-3.2-.6-4.5s-3.8-.4-6.2.9-4.2.8-5,.1a2.4,2.4,0,0,1-.6-2.5c.3-1.2,1.8-2.8,3.4-4.5s5.1-5.4,6.2-9.4a10.8,10.8,0,0,0,5.8-.4c-.3-3.4-.5-7.7-.7-11.1a2,2,0,0,1,4-.2h0a179.1,179.1,0,0,0,3.1,23.9c.4,1.9.9,3.9,1.3,5.8a28,28,0,0,0,2.2,5.2,62.4,62.4,0,0,0,6.5,9.8,64.3,64.3,0,0,0,8.1,8.5,41.1,41.1,0,0,0,9.6,6.3,48.4,48.4,0,0,0,11.1,3.2,76.6,76.6,0,0,0,23.5.1,33.6,33.6,0,0,0,5.5-1.3,40.6,40.6,0,0,0,5.2-2.3,47.6,47.6,0,0,0,4.9-3,46.8,46.8,0,0,0,4.5-3.7,45.4,45.4,0,0,0,7.5-8.9,56.4,56.4,0,0,0,5.2-10.5,104.2,104.2,0,0,0,3.6-11.4,168.6,168.6,0,0,0,4.3-23.7h0a2,2,0,0,1,4,.4c-.4,4.3-1.2,10-1.9,14.3a15.2,15.2,0,0,0,6.5-2.3,31.9,31.9,0,0,0,5.3,14.1c1.6,2.3,1.4,4,.7,4.8s-1.9.9-3.3.3-3.3-1.5-5.3-.1-1.7,3.8-1.6,5.5v.5c0,.5.1,1.1.2,1.9s.8,6.3-.3,8.3-2.5,2.4-5.2,2.7-3.8,3.5-3.8,4.8a5.8,5.8,0,0,1-1.1,3.6c-.9,1.2-3,1.6-3.8,1.6a2.4,2.4,0,0,0-2.3,2.5c0,1.3,1.3,2.6,3.8,3s5.8,2.7,8.4,4.5l1.7,1.5a4.8,4.8,0,0,1,1,1.4,2,2,0,0,1,.1.6c0,.3,0,.7.1,1.2s0,1.7,0,2.6-.2,3.5-.3,5.3l-.2,2.6c0,.5-.1.8-.1,1.2s-.1.8-.2,1.2c-.7,3.3-1.8,6.7-2.8,10.2-.5,1.7-1,3.5-1.5,5.3l-.7,2.7-.6,2.7c-.4,1.7-.8,3.4-1.3,5a25.1,25.1,0,0,1-1.8,4.5l-.4.7-.8-.3-4.7-2.2-4.8-2.4c-1.6-.8-3.2-1.6-5-2.4a2.5,2.5,0,0,0-1.9,4.5h.1l4.7,2.3,4.8,2.5c1.6.8,3.3,1.6,5.1,2.4l1.5.5h1a3.6,3.6,0,0,0,2-.3,5.3,5.3,0,0,0,2-1.6,10.8,10.8,0,0,0,1-1.5,29.4,29.4,0,0,0,2.2-5.5c.6-1.8,1-3.6,1.4-5.4l.5-2.6.6-2.5c.4-1.7.9-3.4,1.4-5.1,1-3.5,2.1-6.9,2.8-10.6.1-.5.2-.9.2-1.5s.1-1,.2-1.5v-1.7l3,.3,4.3.4,8.6.8,8.5.9,4.1.6,1.7.5,1.9.7c5.2,2,10.4,4.5,15.5,6.9l7.7,3.7c2.5,1.2,4.9,2.6,7.4,4s4.8,2.9,7.1,4.4l3.2,2.4,1.3,1.2.4.5.4.7a21.8,21.8,0,0,1,1.4,3.5c.4,1.3.8,2.7,1.1,4a73.1,73.1,0,0,0,2.6,8.5c1.9,5.2,3.6,10.7,5.3,16.2l2.6,8.2c.8,2.7,1.7,5.5,2.5,8h0a2,2,0,0,0,3.9-.8ZM109.3,66.5c.1-.6.3-1.1.4-1.7l.3-1,.3-1c1.4-5.3,2-10.4,4.1-14.4a15.1,15.1,0,0,1,1.8-2.7l1.1-1.2,1.3-1a48.6,48.6,0,0,1,6.5-3.6l7.1-3.3,3.6-1.8,1.8-1,1.9-1.3a2.4,2.4,0,0,0-2.9-3.9h-.1l-1.4.8-1.7.8L130,31.8h-.3l1.1-1.7,4.6-6.8,2.4-3.4,1.2-1.7,1.2-1.4a18.4,18.4,0,0,1,5.7-4.3,12.4,12.4,0,0,1,6.6-1.2h.8l1,.2,2.1.4,4.2.7c5.6.9,11.2,1.6,16.9,2.2,2.8.3,5.6.6,8.6.7h2.4l2.5-.4a37.4,37.4,0,0,0,4.4-1.3c2.7-1,5.3-2.1,7.8-2.9a11.3,11.3,0,0,1,3.3-.6,10.6,10.6,0,0,1,3.3.7,14.8,14.8,0,0,1,5.8,4.1,11.5,11.5,0,0,1,1.8,2.9l.7,1.8.7,2,2.6,8c.4,1.3.9,2.7,1.4,4v.3l-1.6-.5a38.5,38.5,0,0,1-6.7-2.6h-.1a2.1,2.1,0,0,0-2.2,3.6,32.5,32.5,0,0,0,7.5,3.6l7.2,2.5,3.2,1.4.7.4.6.4,1.2,1.1a18.3,18.3,0,0,1,3.7,5.6,21.6,21.6,0,0,1,1.7,6.6c.1.6.1,1.2.1,1.7s.1,1.4.1,2.1.3,2.7.5,4,1,5.1,1.5,7.5v.3a43.7,43.7,0,0,0-5.7-5.6c-5.7-4.6-15.9-10.6-26.2-12.3-12.2-2-29.7-3.1-42-.3l-12.3,2.4c-9.8,1.8-20.9,3.8-24.7,5.3l-2.5.9c-5.2,2-12.3,4.6-18.2,10.8v-.3a20.6,20.6,0,0,1-.2-3.3A17.4,17.4,0,0,1,109.3,66.5Zm50.5,93.8c-1.7,0-3.4-.8-3.4-2.5a3.8,3.8,0,0,1,3.3-3.6c1.9-.3,3.2.3,3.6,2.1S161.4,160.3,159.7,160.3Zm14.9-.6c-1.7,0-3.4-.5-3.5-2.2a3.8,3.8,0,0,1,3.3-3.6c1.9-.3,3.3-.3,3.6,1.5S176.3,159.7,174.7,159.7Zm60.9-24.2a23.3,23.3,0,0,1-2.6-4.3,82.7,82.7,0,0,1-8.8.6c0,.7-.1,1.5-.2,2.2a21.7,21.7,0,0,1-2.4,7.8,12,12,0,0,1-1.3,1.9,10.6,10.6,0,0,1-1.6,1.6,14,14,0,0,1-3.8,2.2,23.5,23.5,0,0,1-8,1.4h-7.5a31.4,31.4,0,0,1-7.8-1.3,16.9,16.9,0,0,1-3.9-1.8l-1.8-1.4-.8-.8-.6-.8a20,20,0,0,1-3.8-7.2c-.2-.6-.3-1.1-.4-1.7s.1,1.6.2,2.4a17.5,17.5,0,0,0,1,4.3,12.8,12.8,0,0,0,2.5,3.5,17.8,17.8,0,0,1,3.2,4.6,13.9,13.9,0,0,1,1.2,5.7,11.9,11.9,0,0,1-1.5,5.8,12.4,12.4,0,0,1-4,4.4,2,2,0,0,1-2.3-3.2h.1a9.4,9.4,0,0,0,2.5-3.1,8.1,8.1,0,0,0,.9-3.8,9.7,9.7,0,0,0-.8-4,14.4,14.4,0,0,0-2.5-3.6,16.7,16.7,0,0,1-3.2-4.7,21.2,21.2,0,0,1-1.2-5.4,73.5,73.5,0,0,1-.2-8.8H171a24.6,24.6,0,0,0-5.1,2.1l-2.5,1.3a54.6,54.6,0,0,1-.4,6.8,28.3,28.3,0,0,1-1,4.8,11.5,11.5,0,0,1-1.1,2.5,12.2,12.2,0,0,1-1.7,2.1c-1.2,1.2-2.5,2.2-3.6,3.1a13.6,13.6,0,0,0-2.8,2.8l-.4.7v.7a10.2,10.2,0,0,0-.3,1.9,5,5,0,0,0,.2,1.6,2.3,2.3,0,0,0,.6,1.1h.1a1.7,1.7,0,0,1-2,2.7,5.6,5.6,0,0,1-2.1-2.5,7.9,7.9,0,0,1-.6-2.9,14,14,0,0,1,.2-2.7v-.7l.2-.8a8.6,8.6,0,0,1,.7-1.3,17.3,17.3,0,0,1,3.5-3.8l3.4-2.9a7,7,0,0,0,2-3,18.4,18.4,0,0,0,.6-1.9l-.8,1-.7.8-.4.4-.5.4a10,10,0,0,1-1.9,1.3,19.5,19.5,0,0,1-3.9,1.5,40.7,40.7,0,0,1-7.6,1.2h-7.6a35,35,0,0,1-7.7-1.3,15.1,15.1,0,0,1-7.3-4.4,12.4,12.4,0,0,1-2.2-3.9,17,17,0,0,1-.8-3.2h-8.2c-1.5,1.3-3.5,3-5.8,4.8-5,3.9-13.8,7.6-17.7,6.6a2,2,0,0,1-1.5-1.2c-1.1-2.6,1.1-5.1,5.8-10a92.4,92.4,0,0,0,10-12,2.4,2.4,0,0,0-2-3.8h-.3l-3.9.8c-2.9.7-7.7,1.8-9.1.7s-.4-.3-.4-1.3c-.1-2.6,7.8-9.9,15.2-15.2a2.4,2.4,0,0,0-1.8-4.3c-1.1.2-5.6.5-6.1-1.4s5.3-7.7,10.7-11.8a82.8,82.8,0,0,0,9.9-8.5c5.3-5.7,11.7-8.1,16.9-10.1l2.5-1c3.3-1.3,14.6-3.4,23.7-5,5.3-1,9.9-1.8,12.5-2.4,11.6-2.7,28.9-1.5,40.1.3,8.8,1.4,18.4,6.7,24,11.2S242.1,82,244.4,86.7a52.2,52.2,0,0,1,3,8.3c1.1,3.7,2,7,5.4,9s6.3,6.1,6.6,8.6a3.9,3.9,0,0,1-.7,3.3c-.7.8-2.9,3.1-8.6-1.1a2.4,2.4,0,0,0-3.8,2.4c.8,4,2.8,7,6.2,10.7s4,6.1,3.8,8.7a4.2,4.2,0,0,1-1.4,3C253.3,140.7,241.6,142.9,235.6,135.5Z" style="fill:#fff"/><path d="M183.2,182.1a36,36,0,0,1-5.3,1.3l-5.3.7a75.2,75.2,0,0,1-10.6.2,1.7,1.7,0,0,1,.1-3.3h0l5-.3,5.1-.5,5-.8a43.4,43.4,0,0,0,4.8-1.1h0a2.1,2.1,0,0,1,1.3,3.9Z" style="fill:#3649a3"/><path d="M199.8,131a3.7,3.7,0,0,1-3.5,3.5,3.5,3.5,0,0,1-3.5-3.5,4.3,4.3,0,0,1,3.9-4C198.6,126.9,200.1,128.5,199.8,131Z" style="fill:#3649a3"/><path d="M133.7,134.1a3.3,3.3,0,0,1-3.7-3.6,3.7,3.7,0,0,1,3.9-3.2c1.9,0,3.3,1,3.3,2.9A3.7,3.7,0,0,1,133.7,134.1Z" style="fill:#3649a3"/><path d="M150.6,103.3a2,2,0,0,1-2,1.1h-.2a31.2,31.2,0,0,0-4.6,0,25.3,25.3,0,0,0-4.6.6,35.8,35.8,0,0,0-4.5,1.5l-4.6,2h0a2,2,0,0,1-2.1-3.4,30.4,30.4,0,0,1,4.6-3,24.7,24.7,0,0,1,5.3-2.2,19.6,19.6,0,0,1,5.9-.6l2.9.3a12.2,12.2,0,0,1,3,.9A2,2,0,0,1,150.6,103.3Z" style="fill:#3649a3"/><path d="M214.8,106.8a2,2,0,0,1-2.4.6h-.2a20.6,20.6,0,0,0-4.2-1.2l-4.7-.7-2.3-.2h-2.3a17.8,17.8,0,0,0-4.1.4h-.1a2.3,2.3,0,0,1-1.5-4.4,14.1,14.1,0,0,1,5.7-1.3h2.7l2.7.3a32.3,32.3,0,0,1,5.2,1.2,16.8,16.8,0,0,1,5.1,2.5A2,2,0,0,1,214.8,106.8Z" style="fill:#3649a3"/></svg>