<svg xmlns="http://www.w3.org/2000/svg" viewBox="0 0 24 24"><title>Instagram</title><rect width="24" height="24" style="fill:none"/><path d="M12,3h4.4a6.1,6.1,0,0,1,2,.4,3.6,3.6,0,0,1,2.1,2.1A6.1,6.1,0,0,1,21,7.6c0,1.2.1,1.5.1,4.4s0,3.3-.1,4.4a6.1,6.1,0,0,1-.4,2,3.6,3.6,0,0,1-2.1,2.1,6.1,6.1,0,0,1-2,.4H7.7a6.1,6.1,0,0,1-2-.4,3.6,3.6,0,0,1-2.1-2.1,6.1,6.1,0,0,1-.5-2c0-1.2-.1-1.5-.1-4.4s0-3.3.1-4.4a6.1,6.1,0,0,1,.4-2A3.6,3.6,0,0,1,5.5,3.5,6.1,6.1,0,0,1,7.6,3H12m0-2H7.5a8.1,8.1,0,0,0-2.7.5A5.6,5.6,0,0,0,1.6,4.8a8.1,8.1,0,0,0-.5,2.7C1,8.6,1,9,1,12s0,3.4.1,4.5a8.1,8.1,0,0,0,.5,2.7,5.6,5.6,0,0,0,3.2,3.2,8.1,8.1,0,0,0,2.7.5h9.1a8.1,8.1,0,0,0,2.7-.5,5.6,5.6,0,0,0,3.2-3.2,8.1,8.1,0,0,0,.5-2.7c0-1.2.1-1.6.1-4.5s0-3.4-.1-4.5a8.1,8.1,0,0,0-.5-2.7,5.6,5.6,0,0,0-3.2-3.2,8.1,8.1,0,0,0-2.7-.5Z"/><path d="M12,6.3A5.7,5.7,0,1,0,17.7,12h0A5.7,5.7,0,0,0,12,6.3Zm0,9.3A3.7,3.7,0,1,1,15.7,12h0A3.7,3.7,0,0,1,12,15.7Z"/><circle cx="17.9" cy="6.1" r="1.3"/></svg>