<svg xmlns="http://www.w3.org/2000/svg" viewBox="0 0 150.9 150.9"><title>Asset 2</title><polygon points="33.2 106.4 32.1 104.9 25.4 104.8 32.3 100 30.8 97.9 20.3 105.3 21.8 107.4 30.3 107.3 27.4 115.3 28.9 117.4 39.3 110 37.9 107.9 31 112.8 33.2 106.4" style="fill:#fff"/><path d="M29.4,93.9l-3.7-.4L24,87.7l2.8-2.4L26,82.6,15.3,91.7l.9,3.2,13.9,1.8ZM18.3,92.5l3.9-3.3,1.2,3.9Z" style="fill:#fff"/><polygon points="23.9 81.1 23.9 82.4 26.1 82.4 26.2 80 23.8 77.4 15.4 76.5 15.5 71.7 26.1 71.9 26.1 69.3 13.3 69.1 13.2 78.9 22.9 79.9 23.9 81.1" style="fill:#fff"/><path d="M26.9,65.1l-2.8-2.4L25.9,57l3.7-.4.8-2.7L16.5,55.5l-1,3.2,10.6,9.2Zm-4.6-4-3.9-3.3,5.1-.5Z" style="fill:#fff"/><path d="M22,43.5l.5,3.2L26,49l2.9-.7,1.8,5.2,1.7-2.6-1.9-4.8L32.7,43l3.5,2.4,1.4-2.1L27,36Zm8.9-1.7L28,46.1l-1.3.3-2-1.3-.2-1.3,2.9-4.3Z" style="fill:#fff"/><polygon points="47.4 19.5 44.8 21.2 44.4 27.8 42.5 29 39.6 24.5 37.5 25.9 44.4 36.7 46.6 35.3 43.7 30.8 45.8 29.5 52 31.8 54.7 30.1 46.9 27.3 47.4 19.5" style="fill:#fff"/><path d="M61.5,14.7l-9,2.7,3.6,12.3,2.5-.7-1.1-3.7,6.6-1.9,1.7-2.8-1.3-4.4Zm.8,6.8-5.4,1.6-1.3-4.4L61,17.1l1.2.6.8,2.6Z" style="fill:#fff"/><polygon points="75.2 21.1 70.8 13.3 68 13.3 73.4 23 74.2 22.9 72.7 26.1 75.4 26 81.8 13.1 79.1 13.2 75.2 21.1" style="fill:#fff"/><polygon points="96.8 16.7 86.8 14.1 83.6 26.5 86 27.1 88.7 16.9 96.2 18.8 96.8 16.7" style="fill:#fff"/><path d="M109.8,23.2l-6.4-3.7-3.4.8-4.2,7.3,1,3.3,6.4,3.7,3.4-.8,4.2-7.3Zm-4.9,8.6-1.6.4-4.4-2.5L98.4,28l3.3-5.7,1.6-.4,4.4,2.5.5,1.5Z" style="fill:#fff"/><polygon points="111.6 38.5 111.5 36.9 116 32.6 117.6 32.7 122.8 38 124.4 36.5 118.4 30.3 114.9 30.1 109.1 35.7 109.2 39.2 115.1 45.4 116.7 43.9 111.6 38.5" style="fill:#fff"/><path d="M121.2,56.2l2.7,1,2.8-1.5.7-2.4,1.4.6,2.7-1.4.7-2.8-4.4-8.3-11.3,6Zm5.9-11.6,2.7,5-.2.9-1.3.7-1.3-.5L124.4,46Zm-1.8,7.8-.3,1.3-1.5.8-.9-.3-3-5.6,2.8-1.5Z" style="fill:#fff"/><polygon points="125.1 71.4 127.3 70.9 125.5 62.5 128.6 61.9 129.9 68.1 132 67.7 130.7 61.4 133.8 60.8 135.5 69 137.6 68.6 135.4 57.8 122.8 60.4 125.1 71.4" style="fill:#fff"/><polygon points="135.8 73 135.5 77.8 124.9 77.1 124.7 79.7 135.3 80.3 135.1 85.1 137.3 85.2 138 73.1 135.8 73" style="fill:#fff"/><polygon points="123.2 88.8 128.2 90.5 127.4 92.8 121.1 94.9 120.1 97.9 127.9 95.2 132.3 101.6 133.3 98.7 129.6 93.3 130.3 91.2 135.3 92.9 136.1 90.5 124 86.3 123.2 88.8" style="fill:#fff"/><path d="M118.5,100.2l1.9,3.1-3.5,4.9-3.6-.7-1.6,2.3,13.8,2.7,1.9-2.7-7.2-12Zm5.8,9.6-5-1,2.3-3.3Z" style="fill:#fff"/><path d="M75.5,0A75.4,75.4,0,0,0,37.7,140.8v8.9a1.3,1.3,0,0,0,1.3,1.3H94l.6-.2,18.2-9.8A75.4,75.4,0,0,0,75.5,0Zm-10,148.3H51.7c6.2-8.3,10.9-19.7,13.8-30.3Zm-15.1-2.6V134.5c1.8-2,9.6-11.3,14.8-26.6C63,119.9,57.8,135.1,50.3,145.8Zm-2.3-12.7a1.3,1.3,0,0,0-.4.9v14.4H40.3V131.4l25.1-35C60.8,119.5,48.2,132.9,48.1,133.1ZM44.7,73.4l-1-.3v-.9h3.4a6.4,6.4,0,0,0,.1.9l.2.8,1.1,3.2,1,3.1h.1l.9-3.1.9-3.5L49.9,73v-.9h4.1V73l-.7.5-.5.6-.4.7-.3.7-2.3,6.9-1.7.3-1.2-3-1.1-3h-.1l-1.1,3-1,2.7-1.6.3-3.6-9.4-1-.3v-.9h3.3a5.8,5.8,0,0,0,.1.9l.2.8.9,2.9,1.2,3.5h.1l1.1-3.4.6-1.7ZM58,75.5A17.4,17.4,0,0,1,86.3,61.8l-16,6.3-11.3,13A17.3,17.3,0,0,1,58,75.5ZM69.7,42.5v-.9h3.7l.3.5.3.4L76.7,46l1.9,2.5h.1V42.9L77,42.5v-.9h4.4v.9l-1.6.4q0,.3,0,1t0,1.6,0,2v3.6c0,.5,0,.8,0,1l-1.2.2-3.9-5.1-2.2-2.9h-.1v6.5l1.5.3v1H69.5v-.9l1.6-.4.2-7.8Zm37.1,33.9v1.4h-3.3v3.4h3.5l1-1.8.7.2-.4,2.9-.2.2H99.8v-.9l1.4-.4V73.4L99.9,73v-.9h7.9v2.9l-.7.2-.7-1.7h-3v3ZM54.2,90.5,70.8,71.4l7,9.8ZM80.1,79.6l-7-9.8,23.6-9.3Zm.6,3.3L92,69.9a17.3,17.3,0,0,1,.9,5.6A17.4,17.4,0,0,1,64.7,89.2Zm12,65.5H68.1V96.3l24.6,35.1Zm1.9-18.8-24-34.2L86,102.4l23.3,24.7Zm16,9.7-15.3,8.2V132.1l15.3-2.5Zm2.6-1.6V128a1.3,1.3,0,0,0-.4-.9L96.8,110.1a40.7,40.7,0,1,0-43.9-.8L38,130.2a1.3,1.3,0,0,0-.2.8v6.8a72.9,72.9,0,1,1,75.5,0Z" style="fill:#fff"/></svg>