<?xml version="1.0" encoding="utf-8"?>
<!-- Generator: Adobe Illustrator 21.0.0, SVG Export Plug-In . SVG Version: 6.00 Build 0)  -->
<svg version="1.1" id="Layer_1" xmlns="http://www.w3.org/2000/svg" xmlns:xlink="http://www.w3.org/1999/xlink" x="0px" y="0px"
	 viewBox="0 0 74 50.5" style="enable-background:new 0 0 74 50.5;" xml:space="preserve">
<style type="text/css">
	.st0{fill:#2E71F2;}
</style>
<title>Asset 2</title>
<path class="st0" d="M16.2,18.1c8.9-0.1,16.2,7.2,16.3,16.1c0.1,8.9-7.2,16.2-16.1,16.3S0.2,43.3,0.1,34.4c0,0,0-0.1,0-0.1V32
	c0-15.8,11.4-29.3,27-31.9c2.4-0.4,4.8,1.2,5.2,3.6c0.1,0.3,0.1,0.6,0.1,0.9v0.2c0,2.3-1.7,4.2-3.9,4.5c-4.7,0.7-9.1,2.9-12.5,6.3
	c-0.8,0.8-1.6,1.7-2.3,2.7L16.2,18.1z M57.8,18.1C66.7,18,74,25.3,74.1,34.2S66.9,50.4,58,50.5s-16.2-7.2-16.3-16.1c0,0,0-0.1,0-0.1
	V32c0-15.8,11.4-29.3,27-31.9c2.4-0.4,4.8,1.2,5.2,3.6C74,4,74,4.3,74,4.6v0.2c-0.1,2.2-1.8,4.1-4,4.4c-4.7,0.8-9,3-12.4,6.4
	c-0.8,0.8-1.6,1.7-2.3,2.7L57.8,18.1z"/>
</svg>
