<svg xmlns="http://www.w3.org/2000/svg" viewBox="0 0 800 135"><title>Asset 1</title><path d="M97.3,107.2H88.4L68.3,54.9A6.1,6.1,0,0,0,72,49.2a6.4,6.4,0,0,0-6.5-6.3,6.3,6.3,0,0,0-6.3,6.5,5.9,5.9,0,0,0,3.7,5.6L42.8,107.2H34a1.9,1.9,0,0,0,0,3.7H97.3a1.9,1.9,0,0,0,0-3.7ZM67.7,88.5V63.7l7.3,19.1Zm8.5-2.2,6.6,17.3L68.6,92.4ZM64,88.5l-7.3-5.8L64,63.6Zm-1.5,3.9L48.4,103.5,55,86.3ZM64,96.2v11h-15Zm3.7,0,14.3,11H67.7ZM65.5,46.7a2.8,2.8,0,0,1,2.7,2.6,2.9,2.9,0,0,1-2.7,2.7,2.7,2.7,0,0,1-2.6-2.7A2.6,2.6,0,0,1,65.5,46.7Z" style="fill:#fff"/><path d="M44.7,64.5a2.1,2.1,0,0,0,1.1.4,1.7,1.7,0,0,0,1.5-.7,1.9,1.9,0,0,0-.4-2.6,15.1,15.1,0,0,1-6.2-12.3,15.6,15.6,0,0,1,6.3-12.4,1.9,1.9,0,1,0-2.2-3A19.2,19.2,0,0,0,37,49.2,19.1,19.1,0,0,0,44.7,64.5Z" style="fill:#fff"/><path d="M39.1,73.9l1,.4a1.6,1.6,0,0,0,1.5-.9,1.8,1.8,0,0,0-.5-2.6A26.3,26.3,0,0,1,41,27.5a1.9,1.9,0,0,0-2.1-3.1A30.4,30.4,0,0,0,26,49.2,30,30,0,0,0,39.1,73.9Z" style="fill:#fff"/><path d="M84.3,36.8a15.2,15.2,0,0,1,6.3,12.4,15.4,15.4,0,0,1-6.2,12.3,1.8,1.8,0,0,0-.4,2.6,1.7,1.7,0,0,0,1.5.7,2.1,2.1,0,0,0,1.1-.4,19.2,19.2,0,0,0,7.8-15.4,18.9,18.9,0,0,0-7.8-15.4A1.9,1.9,0,0,0,84,34,1.8,1.8,0,0,0,84.3,36.8Z" style="fill:#fff"/><path d="M90.1,27.6A26.3,26.3,0,0,1,90,70.9a1.8,1.8,0,0,0-.5,2.6,2,2,0,0,0,1.5.9,1.4,1.4,0,0,0,1-.4,29.9,29.9,0,0,0,13-24.7A30.3,30.3,0,0,0,92.1,24.7a1.8,1.8,0,0,0-2.6.5A2.1,2.1,0,0,0,90.1,27.6Z" style="fill:#fff"/><path d="M567.4,32.7a1.8,1.8,0,0,0-2.6,0L516,80.4a19.6,19.6,0,0,0-7.1-6.5l22.7-27.3a1.8,1.8,0,0,0-2.8-2.4L505.2,72.4a19.5,19.5,0,0,0-11.9.1l33.3-45.7a1.9,1.9,0,1,0-3-2.2L484,79v.2a19.3,19.3,0,0,0-4.1,12,19.9,19.9,0,0,0,19.9,19.9,19.6,19.6,0,0,0,12.6-4.6h0l49.1-40.4a1.8,1.8,0,1,0-2.4-2.8L518.6,96.4a23,23,0,0,0,.7-5.1,19.5,19.5,0,0,0-1.5-7.6l49.7-48.4A1.9,1.9,0,0,0,567.4,32.7ZM515.6,91.3a16.3,16.3,0,1,1-2.4-8.3l-8.7,8.4a6.1,6.1,0,0,0-3.2-.9,6.5,6.5,0,0,0-6.5,6.5,6.4,6.4,0,0,0,6.5,6.5,6.3,6.3,0,0,0,6.3-6.5,6.9,6.9,0,0,0-.6-2.7l7.8-7.6A15,15,0,0,1,515.6,91.3Zm-11.7,5.6a2.8,2.8,0,0,1-2.6,2.7,2.9,2.9,0,0,1-2.7-2.7,2.8,2.8,0,0,1,2.7-2.7A2.7,2.7,0,0,1,503.9,96.9Z" style="fill:#fff"/><path d="M179.7,54.8h-9.9V49.2c0-1-1.5-1.9-2.6-1.9h-2.4V26.2a1.9,1.9,0,0,0-3.7,0V47.3h-2.7c-1,0-1,.7-1,1.9v5.6c-5,0-7.4,2.8-7.4,7.2V80.7a7.1,7.1,0,0,0,3.7,6.7v21.3c0,1,.5,1.9,1.5,1.9h26c1,0,2.2-.9,2.2-1.9V87.4a7.1,7.1,0,0,0,3.7-6.7V61.9C187.1,57.6,183.9,54.8,179.7,54.8ZM161.1,51h5v2.5h-5Zm22.3,29.5a3.6,3.6,0,0,1-2.4,3.7,1.9,1.9,0,0,0-1.3,1.7v20.8H157.4V86.1a1.7,1.7,0,0,0-1.3-1.7,3.5,3.5,0,0,1-2.4-3.7V61.9c0-2.2.7-3.3,2.8-3.3h23.2c2.7,0,3.7,1.9,3.7,3.3Z" style="fill:#fff"/><path d="M175.6,62.2H160.7a1.9,1.9,0,0,0,0,3.7h14.9a1.9,1.9,0,1,0,0-3.7Z" style="fill:#fff"/><path d="M175.6,69.6H160.7a1.9,1.9,0,0,0,0,3.7h14.9a1.9,1.9,0,1,0,0-3.7Z" style="fill:#fff"/><path d="M175.6,77.1H160.7a1.9,1.9,0,0,0,0,3.7h14.9a1.9,1.9,0,1,0,0-3.7Z" style="fill:#fff"/><path d="M220.6,54.8h-9.9V49.2c0-1-1.5-1.9-2.6-1.9h-2.4V26.2a1.9,1.9,0,0,0-3.7,0V47.3h-2.7c-1,0-1,.7-1,1.9v5.6c-5,0-7.4,2.8-7.4,7.2V80.7a7.1,7.1,0,0,0,3.7,6.7v21.3c0,1,.5,1.9,1.5,1.9h26c1,0,2.2-.9,2.2-1.9V87.4a7.1,7.1,0,0,0,3.7-6.7V61.9C228.1,57.6,224.8,54.8,220.6,54.8ZM202,51h5v2.5h-5Zm22.3,29.5a3.6,3.6,0,0,1-2.4,3.7,1.9,1.9,0,0,0-1.3,1.7v20.8H198.3V86.1a1.7,1.7,0,0,0-1.3-1.7,3.5,3.5,0,0,1-2.4-3.7V61.9c0-2.2.7-3.3,2.8-3.3h23.2c2.7,0,3.7,1.9,3.7,3.3Z" style="fill:#fff"/><path d="M216.5,62.2H201.6a1.9,1.9,0,0,0,0,3.7h14.9a1.9,1.9,0,1,0,0-3.7Z" style="fill:#fff"/><path d="M216.5,69.6H201.6a1.9,1.9,0,0,0,0,3.7h14.9a1.9,1.9,0,1,0,0-3.7Z" style="fill:#fff"/><path d="M216.5,77.1H201.6a1.9,1.9,0,0,0,0,3.7h14.9a1.9,1.9,0,1,0,0-3.7Z" style="fill:#fff"/><path d="M704.7,104a11.1,11.1,0,0,1,6.5,2.2l2-2a13.2,13.2,0,0,0-8.4-3,13.4,13.4,0,0,0-8.4,3l2,2A10.6,10.6,0,0,1,704.7,104Z" style="fill:#fff"/><path d="M757.1,104a11.1,11.1,0,0,0-6.5,2.2l-2-2a13.2,13.2,0,0,1,8.4-3,13.4,13.4,0,0,1,8.4,3l-2,2A10.6,10.6,0,0,0,757.1,104Z" style="fill:#fff"/><path d="M722.8,43.7l1.9,2a10.1,10.1,0,0,1,12.6,0l1.9-2a12.7,12.7,0,0,0-16.4,0Z" style="fill:#fff"/><path d="M743.5,39.4A18.7,18.7,0,0,0,731,34.5a19,19,0,0,0-12.5,4.8l1.9,2a16.1,16.1,0,0,1,21.1,0Z" style="fill:#fff"/><path d="M730.9,31.6a21.6,21.6,0,0,1,14.6,5.7l1.9-2a24.3,24.3,0,0,0-33,0l1.9,2A21.6,21.6,0,0,1,730.9,31.6Z" style="fill:#fff"/><path d="M692,99.9l2,2a16.8,16.8,0,0,1,10.8-4,16.5,16.5,0,0,1,10.8,4l2-2A19.7,19.7,0,0,0,704.8,95,19.2,19.2,0,0,0,692,99.9Z" style="fill:#fff"/><path d="M687.9,95.8l2,2a22.5,22.5,0,0,1,14.9-5.7,21.8,21.8,0,0,1,14.9,5.7l2-2a25.5,25.5,0,0,0-16.9-6.5A24.6,24.6,0,0,0,687.9,95.8Z" style="fill:#fff"/><path d="M744.3,99.9l2,2a16.8,16.8,0,0,1,10.8-4,16.5,16.5,0,0,1,10.8,4l2-2A19.7,19.7,0,0,0,757.1,95,19.2,19.2,0,0,0,744.3,99.9Z" style="fill:#fff"/><path d="M757.1,89.3a25.3,25.3,0,0,0-16.9,6.5l2,2a22.5,22.5,0,0,1,14.9-5.7A21.8,21.8,0,0,1,772,97.8l2-2A25.1,25.1,0,0,0,757.1,89.3Z" style="fill:#fff"/><path d="M705,87.2a1.9,1.9,0,0,0,1.9-1.9V70.5h48.4V85.4a1.9,1.9,0,1,0,3.7,0V68.6a1.9,1.9,0,0,0-1.9-1.9H732.9V50.6a1.9,1.9,0,0,0-3.7,0V66.8H705a1.9,1.9,0,0,0-1.9,1.9V85.4A1.9,1.9,0,0,0,705,87.2Z" style="fill:#fff"/><path d="M639.4,51h-5.2V26a2.3,2.3,0,0,1,2.3-2.3h.5a2.3,2.3,0,0,1,2.3,2.3Z" style="fill:#fff"/><path d="M629.3,65h-6.6V60.3a2.3,2.3,0,0,1,2.3-2.3H627a2.3,2.3,0,0,1,2.3,2.3Z" style="fill:#fff"/><path d="M620.2,65h-5.8V62.5a2.3,2.3,0,0,1,2.3-2.3h1.2a2.3,2.3,0,0,1,2.3,2.3Z" style="fill:#fff"/><path d="M641.1,65.2h-8.7V55.3a2.3,2.3,0,0,1,2.3-2.3h4.1a2.3,2.3,0,0,1,2.3,2.3Z" style="fill:#fff"/><path d="M640.6,63.1H615.3a2.3,2.3,0,0,0-2.3,2.3V81.9a18.6,18.6,0,0,0,29.9,0V65.5A2.3,2.3,0,0,0,640.6,63.1Zm-5.2,18.4h-15a1.2,1.2,0,0,1,0-2.3h15a1.2,1.2,0,0,1,1.2,1.2A1.1,1.1,0,0,1,635.5,81.5Zm0-5.7h-15a1.2,1.2,0,0,1,0-2.3h15a1.2,1.2,0,0,1,0,2.3Zm0-5.7h-15a1.2,1.2,0,0,1,0-2.3h15a1.2,1.2,0,0,1,1.2,1.2A1.1,1.1,0,0,1,635.5,70.1Z" style="fill:#fff"/><path d="M627.9,91.8a20.9,20.9,0,0,1-15-6.3V109a2.3,2.3,0,0,0,2.3,2.3h25.3a2.3,2.3,0,0,0,2.3-2.3V85.5A20.9,20.9,0,0,1,627.9,91.8Z" style="fill:#fff"/><path d="M332.8,78.2a1.9,1.9,0,0,1-1.9-1.9V60.1a24.3,24.3,0,1,0-48.5,0V76.4a1.9,1.9,0,1,1-3.7,0V60.1a28,28,0,1,1,56,0V76.4A1.9,1.9,0,0,1,332.8,78.2Z" style="fill:#fff"/><path d="M284.5,87.8a11.4,11.4,0,1,1,0-22.9Z" style="fill:#fff"/><path d="M328.9,87.8a11.4,11.4,0,1,0,0-22.9Z" style="fill:#fff"/><path d="M288.5,89.6h0a2.1,2.1,0,0,1-2.1-2.1V65.2a2.1,2.1,0,0,1,2.1-2.1h0a2.1,2.1,0,0,1,2.1,2.1V87.5A2.1,2.1,0,0,1,288.5,89.6Z" style="fill:#fff"/><path d="M308.5,102.9h-3.5a5.5,5.5,0,1,1,0-10.9h3.5a5.5,5.5,0,0,1,5.5,5.5A5.5,5.5,0,0,1,308.5,102.9Zm0-7.2h-3.5a1.7,1.7,0,1,0,0,3.4h3.5a1.7,1.7,0,0,0,1.7-1.7A1.8,1.8,0,0,0,308.4,95.8Z" style="fill:#fff"/><path d="M324.8,89.6h0a2.1,2.1,0,0,0,2.1-2.1V65.2a2.1,2.1,0,0,0-2.1-2.1h0a2.1,2.1,0,0,0-2.1,2.1V87.5A2.1,2.1,0,0,0,324.8,89.6Z" style="fill:#fff"/><path d="M326.1,99.4H312.8a1.9,1.9,0,0,1,0-3.7h13.2c2.7,0,4.9-2.7,4.9-6V77.1a1.9,1.9,0,0,1,3.8,0V89.6C334.7,95,330.8,99.4,326.1,99.4Z" style="fill:#fff"/><path d="M409.7,107h.7a3.1,3.1,0,0,0,3.1-3.1V68.1a3.1,3.1,0,0,0-3.1-3.1h-.7a3.1,3.1,0,0,0-3.1,3.1v35.8A3.1,3.1,0,0,0,409.7,107Z" style="fill:#fff"/><path d="M410.1,74.3a1.9,1.9,0,0,1-1.9-1.9V44.3a1.9,1.9,0,0,1,3.8,0V72.4A1.9,1.9,0,0,1,410.1,74.3Z" style="fill:#fff"/><path d="M393.1,60.4a1.9,1.9,0,0,1-1.3-.6,22.1,22.1,0,0,1,.1-31.2,1.9,1.9,0,1,1,2.7,2.7,18.4,18.4,0,0,0-.1,26,1.9,1.9,0,0,1-1.3,3.2Z" style="fill:#fff"/><path d="M398.3,55.3a1.9,1.9,0,0,1-1.3-.5,14.9,14.9,0,0,1-4.3-10.4A14.7,14.7,0,0,1,397,33.8a1.9,1.9,0,1,1,2.7,2.7,10.9,10.9,0,0,0-3.2,7.8,11.1,11.1,0,0,0,3.2,7.8,1.9,1.9,0,0,1-1.3,3.2Z" style="fill:#fff"/><path d="M403.2,50.4a1.9,1.9,0,0,1-1.3-.5,7.9,7.9,0,0,1-2.3-5.6,7.8,7.8,0,0,1,2.3-5.6,1.9,1.9,0,1,1,2.6,2.7,4,4,0,0,0-1.2,2.9,4.2,4.2,0,0,0,1.2,2.9,1.9,1.9,0,0,1-1.3,3.2Z" style="fill:#fff"/><path d="M427,60.4a1.9,1.9,0,0,1-1.3-3.2,18.4,18.4,0,0,0-.1-26,1.9,1.9,0,1,1,2.7-2.7,22.1,22.1,0,0,1,.1,31.2A1.9,1.9,0,0,1,427,60.4Z" style="fill:#fff"/><path d="M421.8,55.3a1.9,1.9,0,0,1-1.3-3.2,11.1,11.1,0,0,0,3.2-7.8,10.9,10.9,0,0,0-3.2-7.8,1.9,1.9,0,1,1,2.7-2.7,14.7,14.7,0,0,1,4.3,10.4,14.9,14.9,0,0,1-4.3,10.4A1.9,1.9,0,0,1,421.8,55.3Z" style="fill:#fff"/><path d="M416.9,50.4a1.9,1.9,0,0,1-1.3-3.2,4.2,4.2,0,0,0,1.2-2.9,4,4,0,0,0-1.2-2.9,1.9,1.9,0,0,1,2.6-2.7,7.8,7.8,0,0,1,2.3,5.6,7.9,7.9,0,0,1-2.3,5.6A1.9,1.9,0,0,1,416.9,50.4Z" style="fill:#fff"/><rect width="800" height="135" style="fill:none"/></svg>